<?xml version="1.0" standalone="no"?>
<!DOCTYPE svg PUBLIC "-//W3C//DTD SVG 20010904//EN"
 "http://www.w3.org/TR/2001/REC-SVG-20010904/DTD/svg10.dtd">
<svg version="1.0" xmlns="http://www.w3.org/2000/svg"
 width="604.000000pt" height="601.000000pt" viewBox="0 0 604.000000 601.000000"
 preserveAspectRatio="xMidYMid meet">
<metadata>
Created by potrace 1.16, written by Peter Selinger 2001-2019
</metadata>
<g transform="translate(0.000000,601.000000) scale(0.100000,-0.100000)"
fill="#000000" stroke="none">
<path d="M2895 5964 c-635 -37 -1198 -246 -1695 -627 -152 -117 -426 -395
-541 -549 -337 -452 -535 -956 -589 -1497 -15 -154 -12 -476 6 -631 100 -870
574 -1643 1307 -2131 522 -347 1115 -516 1742 -496 361 12 688 79 1010 207
1134 452 1876 1545 1875 2760 -1 767 -291 1486 -827 2050 -476 501 -1141 827
-1833 899 -111 12 -369 20 -455 15z m252 -100 c71 -6 80 -9 67 -21 -20 -20
-17 -50 6 -70 19 -17 19 -17 0 -30 -26 -19 -26 -59 1 -74 l21 -11 -21 -14
c-23 -17 -28 -53 -9 -72 18 -18 55 -14 71 8 13 19 13 19 30 0 32 -38 77 -19
77 32 0 19 -6 31 -19 36 -19 7 -19 8 4 28 23 21 24 21 41 3 22 -25 49 -24 67
1 l14 20 18 -20 c24 -26 50 -25 69 2 l16 22 16 -22 c19 -27 45 -28 68 -3 17
19 18 19 39 -3 19 -18 20 -22 6 -28 -23 -9 -29 -43 -12 -67 18 -26 48 -27 70
-2 16 19 16 19 33 -2 15 -18 22 -20 46 -12 50 18 41 85 -11 85 -12 0 -28 -7
-35 -15 -10 -13 -15 -12 -35 3 -23 17 -23 17 -4 35 25 24 24 52 -3 71 -29 20
-34 20 -58 -4 l-20 -20 -20 20 c-11 11 -24 20 -30 20 -5 0 -19 -9 -30 -20 -20
-20 -20 -20 -40 0 -19 19 -19 20 5 45 l24 26 103 -25 c206 -49 498 -156 498
-181 0 -28 32 -47 68 -40 29 5 49 -2 145 -56 61 -34 142 -82 181 -107 63 -41
67 -46 48 -53 -13 -5 -25 -16 -28 -24 -6 -14 -9 -13 -21 5 -16 22 -52 27 -71
8 -18 -18 -14 -56 7 -70 20 -12 20 -12 0 -26 -25 -17 -24 -57 2 -76 l21 -14
-21 -11 c-30 -16 -29 -69 2 -80 48 -19 87 42 48 75 -20 18 -20 18 -1 31 26 18
26 59 0 73 -19 10 -19 11 3 33 21 21 23 21 35 5 25 -34 82 -17 82 24 0 10 3
18 7 18 11 0 113 -80 113 -89 0 -19 -14 -19 -27 -1 -16 22 -53 26 -71 8 -19
-19 -14 -55 9 -72 l21 -14 -22 -12 c-46 -25 -2 -99 48 -79 30 11 31 64 2 79
-21 11 -21 11 2 30 21 17 25 17 40 3 12 -11 27 -13 51 -9 43 8 65 -12 46 -42
-26 -41 19 -81 64 -57 25 13 28 11 82 -47 52 -55 55 -61 41 -77 -22 -25 -20
-58 5 -72 l21 -11 -21 -14 c-26 -19 -27 -60 -2 -76 20 -12 20 -12 0 -26 -21
-15 -25 -52 -7 -70 18 -18 56 -14 69 6 11 18 13 18 33 -2 20 -20 20 -22 4 -34
-10 -7 -18 -24 -18 -37 0 -13 8 -30 18 -37 16 -12 16 -14 -4 -34 -20 -20 -22
-20 -33 -2 -13 20 -51 24 -69 6 -18 -18 -14 -56 7 -70 20 -12 20 -12 0 -26
-25 -17 -24 -57 2 -76 l21 -14 -21 -11 c-28 -15 -27 -56 1 -75 19 -13 25 -14
43 -2 29 19 32 62 5 76 l-22 12 21 14 c27 19 27 60 1 74 -19 10 -19 11 3 33
21 21 23 21 35 5 17 -24 58 -23 74 1 14 20 14 20 26 0 15 -23 55 -25 77 -2 16
16 18 16 27 0 10 -19 58 -23 75 -6 8 8 21 -7 47 -53 33 -58 34 -63 16 -66 -11
-2 -27 -13 -35 -25 l-15 -21 -16 22 c-18 26 -41 28 -66 5 -24 -22 -23 -49 4
-67 29 -20 34 -20 58 4 l20 20 20 -20 c25 -25 35 -25 61 1 11 11 22 19 23 17
20 -24 23 -44 9 -64 -18 -29 -3 -61 33 -70 19 -5 31 -20 46 -53 24 -56 88
-239 88 -252 0 -5 -11 -9 -25 -9 -14 0 -30 -9 -37 -19 -12 -19 -12 -19 -26 0
-10 14 -23 19 -44 17 -42 -4 -54 -37 -27 -72 12 -15 15 -27 9 -31 -25 -15 -30
-43 -11 -67 18 -22 18 -24 1 -45 -17 -21 -17 -21 -33 -2 -20 23 -50 25 -72 3
-15 -15 -17 -15 -34 0 -23 21 -48 20 -67 -3 -16 -18 -17 -18 -38 3 l-21 21 23
22 c19 19 21 26 12 43 -6 12 -17 23 -25 26 -9 4 -6 12 11 29 24 24 24 51 0 67
-20 14 -56 8 -67 -10 -11 -18 -13 -18 -33 2 -20 20 -20 22 -4 34 24 17 23 57
-1 74 -19 13 -19 14 4 34 22 20 24 20 39 2 21 -24 51 -23 69 3 18 25 11 56
-15 70 -16 9 -26 7 -48 -10 -22 -15 -29 -17 -33 -7 -8 20 -43 25 -66 9 -26
-18 -27 -48 -2 -69 18 -16 18 -17 -3 -38 -20 -20 -22 -20 -34 -4 -26 35 -82
16 -82 -27 0 -43 59 -63 81 -27 11 17 12 17 34 -2 23 -20 23 -21 4 -34 -21
-15 -25 -52 -7 -70 18 -18 56 -14 70 7 12 19 12 19 34 -2 22 -21 22 -22 3 -35
-24 -16 -24 -47 -1 -69 16 -17 16 -19 0 -35 -24 -24 -23 -54 2 -71 19 -13 19
-13 -1 -31 -39 -33 -8 -85 43 -73 33 9 41 40 18 70 -17 22 -17 23 0 45 19 23
19 23 30 2 13 -25 65 -27 78 -4 8 15 11 15 30 -4 20 -20 20 -21 1 -38 -24 -22
-24 -39 0 -63 18 -18 18 -19 -2 -39 -18 -18 -19 -25 -9 -47 14 -30 65 -35 81
-7 9 16 11 16 23 1 20 -25 43 -29 67 -13 26 19 27 49 1 71 -19 17 -19 17 0 30
25 18 26 48 2 69 -18 15 -18 17 2 39 20 23 21 23 34 4 15 -21 52 -25 70 -7 18
18 14 56 -7 70 -20 12 -20 12 0 26 24 17 25 57 1 74 -17 12 -17 14 0 31 18 17
19 16 27 -6 5 -13 7 -35 4 -50 -4 -18 0 -34 11 -46 15 -16 15 -19 1 -31 -21
-17 -19 -57 4 -72 20 -12 20 -12 0 -26 -37 -25 -18 -82 27 -82 20 0 23 -8 35
-102 18 -135 16 -598 -2 -723 -12 -76 -17 -90 -34 -93 -48 -9 -62 -59 -24 -86
l21 -14 -21 -11 c-23 -13 -29 -55 -10 -67 15 -9 6 -60 -37 -201 -20 -67 -43
-125 -53 -133 -11 -9 -21 -33 -23 -60 -3 -25 -28 -93 -56 -153 -48 -102 -52
-108 -73 -97 -28 15 -66 5 -74 -20 -8 -26 11 -60 35 -60 11 0 20 -2 20 -5 0
-11 -104 -179 -129 -208 -15 -18 -31 -40 -34 -50 -4 -10 -30 -49 -59 -88 -46
-62 -55 -69 -78 -64 -19 4 -32 0 -45 -15 l-18 -20 -19 20 c-23 24 -41 25 -62
4 -40 -39 0 -98 50 -75 13 6 24 16 24 23 0 9 3 9 11 1 19 -19 1 -46 -95 -142
-81 -81 -97 -93 -110 -82 -21 17 -63 6 -71 -19 -3 -10 -1 -28 5 -40 12 -23 0
-36 -137 -142 -77 -59 -78 -60 -81 -34 -4 34 -36 52 -68 37 -13 -6 -24 -16
-24 -22 0 -6 -11 -1 -24 12 -24 23 -24 23 -3 39 28 23 17 67 -20 76 -20 5 -30
2 -43 -14 -17 -20 -17 -20 -33 -1 -22 25 -52 24 -70 -1 -14 -19 -14 -19 -37 5
-13 14 -18 25 -12 25 17 0 34 38 27 60 -9 29 -51 37 -75 15 -19 -17 -21 -17
-38 -2 -23 21 -46 22 -66 1 -21 -21 -20 -40 3 -63 19 -19 19 -20 0 -37 -25
-22 -24 -51 1 -66 19 -12 19 -13 -1 -34 -20 -22 -21 -22 -40 -3 -24 24 -41 24
-63 0 -17 -19 -18 -19 -37 0 -23 23 -42 24 -63 3 -22 -21 -20 -50 4 -67 l20
-14 -20 -18 c-24 -22 -26 -48 -4 -69 21 -21 40 -20 63 3 19 19 20 19 37 0 22
-24 39 -24 63 0 19 19 20 19 37 0 22 -24 39 -24 64 1 25 25 25 35 0 60 l-20
20 20 20 20 20 20 -20 c24 -24 29 -24 58 -4 27 19 28 45 3 68 -19 17 -19 18 1
38 17 17 21 18 31 5 20 -25 45 -27 71 -6 14 11 26 15 26 9 0 -6 10 -14 22 -19
l22 -8 -22 -12 c-27 -15 -30 -65 -4 -80 16 -9 16 -11 -2 -24 -15 -11 -18 -22
-13 -49 l5 -34 -101 -57 c-142 -79 -321 -157 -359 -157 -17 0 -39 -6 -47 -14
-14 -13 -19 -12 -39 4 -23 19 -23 19 -2 30 27 14 26 55 -2 74 -19 13 -25 14
-43 2 -29 -19 -32 -62 -5 -76 l22 -12 -21 -14 c-12 -9 -21 -26 -21 -38 0 -22
-10 -27 -112 -55 -166 -45 -194 -48 -207 -22 -8 14 -21 21 -42 21 -25 0 -33
-6 -45 -35 -11 -26 -20 -35 -38 -35 -13 0 -37 -3 -54 -6 -28 -6 -29 -4 -25 20
3 14 0 33 -7 41 -15 18 -51 20 -68 3 -15 -15 -16 -50 -2 -64 12 -12 -93 -24
-204 -24 -58 0 -59 1 -38 16 39 27 23 84 -23 84 -46 0 -62 -57 -23 -84 21 -15
17 -16 -70 -16 -55 0 -92 4 -92 10 0 6 4 10 9 10 16 0 23 38 11 60 -14 27 -65
27 -80 1 -14 -27 -13 -37 6 -55 14 -15 12 -16 -24 -16 -70 0 -104 11 -99 31
13 47 -61 81 -84 38 l-11 -21 -14 21 c-19 26 -60 27 -76 2 -12 -20 -12 -20
-26 0 -16 23 -49 25 -72 4 -14 -13 -27 -12 -111 11 -115 30 -246 75 -359 121
-74 31 -179 80 -188 88 -2 2 5 12 16 23 19 19 20 19 36 1 20 -24 41 -24 65 0
19 19 20 19 37 0 22 -25 49 -24 67 1 l14 20 18 -20 c22 -24 42 -25 67 -3 23
21 23 38 -2 63 -25 25 -35 25 -60 0 -20 -20 -20 -20 -40 0 l-20 20 20 20 c25
25 25 35 0 60 l-20 20 20 20 20 20 20 -20 c25 -25 35 -25 60 0 l20 20 20 -20
c24 -24 29 -24 58 -4 27 19 28 45 3 68 -19 17 -19 18 1 38 17 17 21 18 31 5
20 -25 45 -27 71 -6 14 11 26 15 26 9 0 -6 10 -14 22 -19 l22 -8 -22 -12 c-27
-14 -30 -65 -6 -79 15 -8 15 -11 -4 -30 l-20 -20 -20 21 c-18 18 -25 19 -47 9
-36 -16 -36 -68 0 -84 22 -10 29 -9 47 9 l20 21 20 -20 c19 -19 19 -22 4 -30
-24 -13 -20 -63 7 -81 18 -13 19 -16 5 -16 -9 -1 -19 -10 -23 -20 -5 -18 -7
-18 -30 5 -26 25 -50 24 -73 -5 -12 -15 -14 -15 -23 2 -14 25 -65 22 -79 -4
-9 -16 -8 -26 5 -45 19 -29 46 -31 70 -4 l18 20 14 -20 c18 -25 48 -26 69 -1
16 18 17 18 38 -3 20 -20 20 -22 4 -34 -21 -15 -24 -52 -6 -70 18 -18 56 -14
70 7 12 20 12 20 26 0 17 -25 58 -25 74 0 12 20 12 20 26 0 17 -25 57 -24 75
1 13 19 13 19 30 0 21 -25 52 -25 70 0 13 19 13 19 30 0 22 -26 52 -25 71 2
l16 22 16 -22 c19 -27 49 -28 71 -2 17 19 17 19 30 0 18 -25 49 -25 70 0 17
19 17 19 30 0 18 -25 49 -25 70 0 17 19 17 19 30 0 16 -22 53 -26 71 -8 19 19
14 55 -9 72 l-21 14 21 11 c28 15 27 56 -1 75 -19 13 -25 14 -43 2 -27 -18
-32 -62 -7 -77 18 -11 18 -12 -2 -33 -20 -20 -22 -20 -34 -4 -17 24 -57 23
-74 -1 -13 -19 -14 -19 -34 4 -20 22 -20 24 -2 39 24 21 23 51 -2 69 l-20 14
20 18 c26 24 25 50 -2 69 -29 20 -34 20 -58 -4 l-20 -20 -21 21 -21 21 21 14
c27 20 27 49 -1 68 l-22 16 22 16 c26 18 28 41 5 66 -22 24 -49 23 -67 -4 -20
-29 -20 -34 4 -58 l20 -20 -20 -20 c-11 -11 -20 -24 -20 -30 0 -5 9 -19 20
-30 l20 -20 -20 -20 c-25 -25 -25 -32 -2 -60 18 -23 18 -24 0 -42 -25 -25 -23
-43 8 -67 19 -15 22 -21 11 -21 -9 0 -21 -8 -27 -17 -10 -17 -10 -17 -20 0
-16 25 -66 22 -81 -5 l-12 -22 -8 22 c-5 12 -15 22 -23 22 -11 0 -8 7 9 24 19
19 23 30 17 47 -14 36 -49 43 -77 15 -23 -23 -25 -23 -30 -5 -4 10 -14 19 -23
20 -14 0 -13 3 6 16 27 19 30 67 5 83 -17 10 -17 10 0 20 10 7 17 23 17 40 0
17 -7 33 -17 40 -17 10 -17 10 0 20 25 16 22 66 -5 81 l-22 12 22 8 c12 5 22
15 22 23 0 11 7 8 24 -9 29 -29 64 -23 78 14 6 17 2 28 -17 47 -16 16 -19 24
-10 24 8 0 19 8 25 18 10 16 10 16 20 -1 14 -23 66 -23 80 1 10 16 10 16 20 0
14 -24 66 -24 80 0 10 16 10 16 20 -1 16 -25 66 -22 81 5 l12 22 8 -22 c5 -12
16 -22 26 -22 15 0 14 -3 -5 -16 -30 -21 -30 -71 1 -83 48 -19 88 42 48 75
-19 17 -19 17 1 34 29 23 18 67 -19 76 -20 5 -30 2 -43 -14 -17 -20 -17 -20
-33 -1 -22 25 -52 24 -70 -1 l-14 -20 -18 20 c-24 26 -50 25 -69 -2 l-16 -22
-16 22 c-19 27 -49 28 -71 2 -17 -19 -17 -19 -30 0 -18 25 -49 25 -70 0 -17
-19 -17 -19 -30 0 -16 22 -53 26 -71 8 -18 -18 -14 -55 8 -71 19 -13 19 -13 0
-30 -25 -21 -25 -52 0 -70 19 -13 19 -13 0 -30 -25 -21 -26 -52 -1 -69 19 -13
19 -14 -3 -35 -22 -22 -23 -22 -39 -2 -21 24 -43 24 -64 -1 -17 -20 -17 -20
-40 2 -23 21 -23 21 -3 35 25 18 26 48 1 70 -19 16 -19 16 1 33 29 23 18 67
-19 76 -20 5 -30 2 -43 -14 -17 -20 -17 -20 -33 -1 -22 25 -52 24 -70 -1 l-14
-20 -18 20 c-10 11 -26 20 -36 20 -10 0 -24 -9 -32 -20 l-14 -20 -18 20 c-22
25 -43 25 -69 2 -20 -18 -22 -18 -43 5 -16 16 -18 23 -8 23 8 0 19 9 25 21 14
26 -11 69 -40 69 -44 0 -66 -58 -31 -82 19 -13 19 -14 -3 -35 -22 -21 -22 -21
-34 -2 -15 24 -48 24 -68 0 -16 -18 -17 -18 -35 0 -24 24 -44 24 -68 0 -18
-18 -19 -18 -35 0 -20 24 -53 24 -68 0 -12 -19 -12 -19 -34 2 l-22 21 21 16
c28 23 17 67 -20 76 -20 5 -30 2 -43 -14 -17 -20 -17 -20 -33 -1 -23 26 -53
24 -72 -5 -19 -29 -6 -66 23 -66 16 -1 16 -1 0 -11 -28 -16 -40 -46 -29 -68
15 -28 47 -32 76 -9 14 11 25 14 25 8 0 -6 10 -14 22 -19 l22 -8 -22 -12 c-29
-16 -30 -66 -1 -81 16 -9 26 -8 45 5 29 19 31 49 5 72 -19 16 -19 16 2 34 17
14 24 15 32 5 18 -23 43 -25 67 -7 22 18 23 18 46 0 24 -19 52 -14 67 11 4 6
16 3 31 -9 26 -20 50 -19 69 4 8 10 15 9 32 -5 22 -17 22 -18 3 -35 -26 -24
-25 -50 2 -69 l21 -15 -23 -19 c-23 -18 -24 -18 -42 0 -22 22 -36 23 -60 1
-23 -21 -23 -45 2 -68 19 -17 19 -18 -3 -36 -17 -14 -24 -15 -32 -5 -18 23
-43 25 -67 7 -22 -18 -24 -18 -45 -1 -21 17 -21 17 -2 33 23 20 25 50 3 71
-18 19 -28 20 -55 6 -23 -13 -26 -68 -4 -76 20 -8 19 -20 -1 -28 -23 -9 -237
132 -229 152 14 37 -44 79 -72 51 -16 -16 -253 190 -393 343 -43 47 -50 60
-41 72 11 13 15 12 32 -5 23 -23 37 -24 61 -2 24 22 23 49 -4 67 -29 20 -34
20 -58 -4 -20 -20 -20 -20 -40 0 -14 14 -28 18 -43 14 -20 -4 -31 4 -65 49
-45 58 -50 70 -28 61 8 -3 24 4 35 15 l21 21 20 -20 c25 -25 35 -25 60 0 l20
20 20 -20 c24 -24 29 -24 58 -4 27 19 28 49 3 71 -19 16 -19 16 1 33 29 23 18
67 -19 76 -20 5 -30 2 -43 -14 -17 -21 -18 -21 -35 -2 -24 26 -50 25 -69 -2
-20 -29 -20 -34 2 -56 18 -18 18 -19 0 -42 l-19 -23 -15 21 c-20 29 -48 28
-72 -3 l-20 -25 -17 26 c-14 22 -15 27 -2 37 23 19 27 43 10 67 -12 18 -22 21
-48 16 -32 -6 -35 -4 -65 49 -18 31 -31 57 -29 58 36 19 45 28 47 46 7 42 -46
69 -76 39 -18 -18 -27 -1 -27 50 0 40 -4 48 -26 59 -30 15 -69 98 -69 148 0
19 -8 39 -19 49 -17 15 -51 94 -51 117 0 4 8 5 19 2 22 -6 51 21 51 47 0 10
-7 26 -16 35 -15 15 -15 17 1 35 36 40 -7 96 -55 70 -25 -14 -27 -65 -2 -79
15 -9 15 -12 2 -21 -23 -15 -25 -14 -42 52 -16 57 -16 64 -1 80 19 22 10 64
-16 73 -22 7 -24 13 -48 165 -14 92 -18 175 -18 410 0 316 4 355 35 347 25 -6
60 19 60 44 0 10 -9 27 -20 36 -19 17 -19 17 0 30 25 18 25 49 0 70 -19 17
-19 17 0 30 24 17 26 50 4 74 -14 15 -13 24 5 95 24 92 68 225 113 340 28 70
36 82 63 90 23 7 31 16 33 37 2 16 -1 34 -6 40 -7 8 -6 19 1 34 12 21 13 21
34 4 21 -18 21 -18 2 -34 -25 -22 -24 -49 1 -72 17 -15 24 -16 45 -7 30 14 35
65 8 82 -17 10 -17 10 -1 20 23 14 24 66 1 78 -15 9 -15 12 4 35 19 24 20 25
32 5 8 -14 21 -18 43 -16 41 4 54 37 28 71 -18 23 -18 24 2 41 19 17 22 17 30
2 12 -22 64 -21 78 2 10 16 10 16 20 0 15 -25 66 -23 80 2 25 48 -30 91 -70
55 -18 -16 -20 -16 -45 3 -24 19 -24 21 -6 27 23 7 34 31 26 56 -12 36 -78 36
-90 -1 -7 -22 10 -60 26 -60 6 0 1 -10 -11 -23 l-23 -23 -23 23 -24 24 39 57
c79 116 188 249 294 359 l109 113 25 -20 c17 -13 31 -17 46 -11 25 9 35 54 16
77 -15 18 -4 31 71 89 46 36 60 42 89 37 26 -4 38 0 48 14 13 18 15 18 24 2 6
-10 16 -18 24 -18 10 0 8 -7 -8 -23 -21 -23 -23 -23 -43 -5 -26 23 -47 23 -69
-2 -15 -17 -16 -24 -7 -45 14 -30 65 -35 82 -7 10 16 10 16 20 0 7 -11 23 -18
40 -18 17 0 33 7 40 18 10 16 10 16 20 0 13 -21 60 -24 78 -6 18 18 15 46 -8
65 -19 17 -19 17 0 30 22 16 26 53 8 71 -18 18 -55 14 -71 -8 -13 -19 -13 -19
-30 0 -21 24 -44 25 -69 3 -10 -9 -21 -14 -24 -10 -7 6 85 76 101 77 6 0 16
-9 23 -20 14 -22 51 -27 70 -8 15 15 16 50 1 65 -21 21 1 34 46 27 37 -5 45
-3 56 14 13 20 13 20 27 1 15 -21 52 -25 70 -7 17 17 15 48 -4 69 -15 17 -12
20 45 48 73 37 77 38 85 6 9 -35 54 -45 76 -17 17 21 18 21 35 2 23 -25 47
-25 70 0 l18 20 14 -20 c18 -26 45 -26 68 0 15 17 16 24 7 45 -14 30 -65 35
-82 8 -10 -17 -10 -17 -20 0 -7 10 -23 17 -40 17 -17 0 -33 -7 -39 -17 -9 -17
-11 -17 -25 2 -11 15 -11 22 -3 27 25 14 255 90 331 109 75 19 81 19 111 3 25
-13 36 -14 53 -5 12 6 22 19 22 29 1 14 2 14 12 -3 6 -11 18 -24 25 -28 12 -7
11 -12 -6 -24 -26 -18 -27 -48 -1 -70 19 -17 19 -17 -1 -31 -30 -21 -22 -64
15 -77 24 -8 31 -6 46 12 17 21 17 21 33 2 22 -24 52 -24 70 1 13 19 13 19 30
0 22 -26 52 -25 71 2 l16 22 16 -22 c19 -27 45 -28 69 -2 15 17 16 24 7 45 -6
14 -17 25 -24 25 -6 0 -1 11 12 25 l23 24 17 -21 c23 -29 67 -18 76 19 5 20 2
31 -16 45 -28 23 -35 23 -60 -2 l-20 -20 -21 21 -21 21 21 14 c25 18 27 47 4
65 -14 12 -11 15 28 20 65 9 153 10 246 3z m-453 -39 c-4 -18 -1 -32 11 -45
23 -26 50 -25 69 1 l14 21 21 -21 21 -21 -20 -20 c-27 -27 -25 -44 6 -69 19
-15 22 -21 11 -21 -9 0 -21 -8 -27 -17 -10 -17 -10 -17 -20 0 -7 10 -23 17
-40 17 -17 0 -33 -7 -40 -17 -10 -17 -10 -17 -20 0 -14 22 -65 22 -82 -1 -12
-16 -14 -16 -35 5 -22 22 -22 23 -3 33 29 15 27 68 -2 79 l-22 8 22 12 c13 7
22 21 22 36 0 25 9 30 75 38 17 2 33 5 38 6 4 0 5 -10 1 -24z m2580 -1027 c40
-51 97 -127 125 -168 46 -67 50 -75 34 -84 -10 -5 -22 -16 -26 -23 -7 -12 -12
-11 -24 6 -18 26 -48 27 -69 2 -16 -18 -17 -18 -38 3 -20 20 -20 22 -4 34 24
17 23 59 -1 74 -20 12 -20 12 0 26 21 15 25 52 7 70 -18 18 -55 15 -70 -6 -12
-16 -14 -16 -34 4 -20 20 -20 22 -2 33 24 15 23 58 -2 73 -20 13 -20 13 2 30
13 10 24 18 25 18 1 0 36 -42 77 -92z m-2839 -4358 c8 0 23 8 33 18 18 18 20
18 40 -3 20 -21 20 -21 1 -33 -25 -16 -25 -58 1 -72 19 -10 19 -11 -3 -33 -21
-21 -23 -21 -35 -5 -7 10 -24 18 -37 18 -13 0 -30 -8 -37 -18 -12 -16 -14 -16
-35 5 -22 22 -22 23 -3 33 26 14 26 56 1 72 -19 12 -19 12 1 33 20 21 22 21
40 3 10 -10 25 -18 33 -18z"/>
<path d="M1890 5534 c-10 -11 -11 -23 -4 -42 12 -35 56 -42 76 -13 14 20 14
20 31 1 21 -24 44 -25 69 -3 17 15 19 15 36 0 25 -22 48 -21 69 3 17 19 17 19
30 0 8 -11 23 -20 34 -20 10 0 27 9 36 20 17 19 17 19 30 0 26 -37 83 -20 83
25 0 44 -57 62 -82 26 -14 -20 -14 -20 -26 0 -15 23 -55 25 -77 2 -16 -16 -18
-16 -27 0 -12 23 -64 22 -78 0 -10 -17 -10 -17 -20 0 -14 22 -66 23 -78 0 -9
-16 -11 -16 -27 0 -21 21 -58 22 -75 1z"/>
<path d="M2600 5534 c-10 -11 -11 -23 -4 -42 12 -35 56 -42 76 -13 14 20 14
20 31 1 22 -26 53 -25 69 0 12 19 13 19 35 -2 42 -39 100 1 73 52 -14 25 -65
27 -80 3 -10 -17 -10 -17 -20 0 -16 25 -64 22 -83 -5 -13 -18 -16 -19 -16 -7
-1 30 -60 40 -81 13z"/>
<path d="M1989 5429 c-26 -50 35 -93 75 -53 15 14 17 14 32 0 22 -23 61 -20
75 5 l11 21 14 -21 c9 -12 26 -21 39 -21 14 0 29 9 36 21 l11 21 14 -21 c27
-38 84 -22 84 24 0 44 -57 62 -82 26 -14 -20 -14 -20 -26 0 -16 25 -57 24 -76
-2 l-14 -21 -11 21 c-14 25 -53 28 -75 5 -15 -14 -17 -14 -32 0 -22 23 -61 20
-75 -5z"/>
<path d="M3112 5438 c-18 -18 -14 -55 7 -70 20 -14 20 -14 0 -26 -25 -16 -25
-57 0 -74 20 -14 20 -14 0 -26 -37 -23 -18 -82 26 -82 44 0 63 59 26 82 -20
12 -20 12 0 26 25 17 25 58 0 74 -20 12 -20 12 0 26 36 25 18 82 -26 82 -12 0
-26 -5 -33 -12z"/>
<path d="M3510 5431 c-5 -11 -10 -24 -10 -30 0 -16 30 -41 50 -41 10 0 26 7
34 16 15 14 17 14 32 0 22 -23 61 -20 75 5 l11 21 14 -21 c9 -12 26 -21 39
-21 14 0 29 9 36 21 l11 21 14 -21 c19 -26 59 -27 76 -2 14 20 14 20 26 0 23
-37 82 -18 82 26 0 44 -57 62 -82 26 -14 -20 -14 -20 -26 0 -7 10 -23 19 -37
19 -13 0 -30 -9 -37 -19 -14 -20 -14 -20 -26 0 -16 25 -57 24 -76 -2 l-14 -21
-11 21 c-14 25 -53 28 -76 4 -16 -16 -18 -16 -27 0 -13 24 -65 22 -78 -2z"/>
<path d="M1792 5338 c-19 -19 -14 -55 9 -72 l21 -14 -21 -11 c-27 -15 -27 -55
-1 -74 19 -13 19 -13 0 -30 -26 -22 -25 -52 1 -70 23 -16 58 -11 66 9 4 11 10
10 30 -6 25 -20 50 -17 70 7 10 13 14 12 32 -6 26 -26 36 -26 61 -1 27 27 25
44 -6 69 -19 15 -22 21 -11 21 9 0 21 8 27 18 10 16 10 16 20 0 7 -11 23 -18
40 -18 17 0 33 7 40 18 10 16 10 16 20 0 15 -24 65 -23 82 1 14 20 14 20 26 0
23 -37 82 -18 82 26 0 45 -57 62 -83 25 -13 -19 -13 -19 -30 0 -21 25 -53 26
-69 1 -12 -19 -12 -19 -33 1 -21 20 -21 22 -3 40 10 10 18 24 18 32 0 20 -28
46 -50 46 -20 0 -50 -25 -50 -41 0 -21 21 -49 37 -49 11 0 8 -6 -11 -21 -25
-20 -28 -20 -45 -5 -24 21 -48 20 -68 -4 -17 -19 -17 -19 -30 0 -18 25 -48 26
-69 1 -16 -18 -17 -18 -38 3 -20 20 -20 22 -4 34 35 26 16 82 -27 82 -12 0
-26 -5 -33 -12z"/>
<path d="M3212 5338 c-7 -7 -12 -21 -12 -33 0 -44 57 -62 82 -26 14 20 14 20
26 0 16 -24 57 -25 74 0 13 19 14 19 34 -4 20 -22 20 -24 2 -39 -21 -18 -24
-46 -6 -64 18 -18 65 -15 78 6 10 16 10 16 20 0 17 -29 68 -23 82 8 11 24 9
29 -15 50 -19 16 -23 24 -13 24 8 0 20 8 26 18 10 16 10 16 20 0 14 -23 66
-24 78 -2 9 16 11 15 34 -1 l24 -18 -23 -23 c-24 -24 -21 -61 6 -72 14 -6 13
-10 -6 -28 -21 -22 -22 -22 -39 -3 -23 25 -49 24 -68 -3 -20 -29 -20 -34 4
-58 25 -25 35 -25 61 1 18 18 22 19 32 6 20 -24 45 -27 71 -6 22 17 26 18 34
4 12 -23 52 -23 70 1 16 19 16 19 39 -4 22 -22 26 -23 46 -9 31 20 34 62 7 77
l-22 12 21 14 c38 27 22 84 -24 84 -44 0 -62 -57 -26 -82 19 -13 19 -14 -4
-34 -22 -20 -24 -20 -39 -2 -20 23 -41 23 -64 0 -18 -18 -20 -18 -40 3 -20 21
-20 21 -1 33 25 16 24 48 -1 69 -19 17 -19 17 0 30 22 16 26 53 8 71 -18 18
-55 14 -71 -8 -13 -19 -13 -19 -30 0 -20 24 -44 25 -68 4 -17 -15 -19 -15 -34
0 -22 22 -52 20 -72 -4 -17 -19 -17 -19 -30 0 -8 11 -23 20 -34 20 -10 0 -27
-9 -36 -20 -17 -19 -17 -19 -30 0 -18 26 -59 26 -75 1 -12 -20 -12 -20 -26 0
-15 21 -52 25 -70 7z"/>
<path d="M4126 5234 c-22 -21 -20 -50 4 -67 19 -13 19 -13 0 -30 -26 -22 -25
-52 1 -71 23 -16 47 -12 66 11 10 13 14 12 32 -6 26 -26 36 -26 61 -1 26 26
25 36 -5 65 -17 18 -20 25 -9 25 8 0 20 11 26 25 9 21 8 28 -7 45 -23 25 -50
26 -72 0 -17 -19 -17 -19 -30 0 -17 24 -46 26 -67 4z"/>
<path d="M1243 5006 c-193 -63 -292 -281 -209 -463 33 -73 103 -144 174 -176
72 -33 207 -31 282 4 101 48 168 136 192 253 30 140 -55 301 -192 364 -66 31
-182 39 -247 18z m185 -90 c120 -43 191 -167 164 -287 -54 -235 -363 -270
-475 -55 -29 57 -29 156 1 212 26 50 99 117 144 131 48 16 120 15 166 -1z"/>
<path d="M1305 4823 c-11 -3 -32 -14 -48 -25 -86 -61 -74 -198 23 -249 96 -52
210 19 210 131 0 98 -89 167 -185 143z"/>
<path d="M1801 4998 c-18 -47 38 -87 73 -52 16 15 18 15 36 -1 18 -16 18 -17
-1 -36 -24 -24 -24 -30 2 -63 11 -14 16 -26 10 -26 -6 0 -15 -10 -22 -21 -9
-17 -7 -26 8 -48 18 -24 18 -27 2 -42 -16 -16 -18 -15 -37 3 -36 36 -96 -7
-72 -51 16 -30 49 -36 72 -13 20 19 21 19 39 1 19 -19 19 -19 -1 -39 -11 -11
-20 -24 -20 -30 0 -12 37 -50 49 -50 5 0 19 8 31 18 21 17 25 17 40 3 15 -15
15 -18 -3 -42 -15 -22 -17 -31 -8 -48 7 -11 17 -21 23 -21 7 0 2 -9 -10 -20
-27 -26 -28 -44 -2 -70 24 -24 29 -24 58 -4 25 18 29 46 7 68 -13 13 -13 18 2
45 17 29 17 30 -4 53 -22 23 -22 24 -3 36 24 15 26 39 3 64 -15 17 -15 19 0
36 24 26 21 49 -7 67 -19 13 -29 14 -45 5 -12 -6 -21 -16 -21 -23 0 -6 -10 -2
-22 10 -20 21 -21 23 -5 41 22 25 21 48 -3 65 -19 13 -19 13 1 31 19 16 22 16
38 2 24 -21 44 -20 66 4 15 17 16 24 7 45 -6 14 -17 25 -24 25 -6 0 -2 9 10
20 25 23 27 33 12 61 -13 23 -65 26 -78 3 -8 -14 -10 -14 -21 0 -8 9 -26 16
-42 16 -15 0 -32 -7 -37 -16 -8 -14 -10 -14 -21 0 -21 25 -70 20 -80 -6z"/>
<path d="M2400 5005 c-34 -41 29 -97 69 -60 18 15 20 15 40 -1 20 -18 20 -18
1 -31 -24 -17 -26 -46 -4 -68 15 -15 15 -17 0 -34 -20 -22 -20 -45 0 -65 21
-21 40 -20 63 3 18 18 19 18 35 -1 15 -17 15 -20 1 -34 -19 -20 -19 -48 1 -68
14 -15 14 -17 0 -32 -20 -20 -20 -43 0 -65 14 -16 14 -19 -2 -38 -18 -20 -18
-20 -31 -1 -18 25 -48 25 -70 1 -16 -19 -16 -19 -33 2 -14 17 -15 24 -5 32 23
19 25 45 5 65 -20 20 -20 20 0 40 11 11 20 25 20 30 0 15 -38 50 -53 50 -8 0
-22 -9 -31 -19 -16 -18 -19 -18 -35 -3 -16 16 -16 18 1 43 21 28 16 54 -14 70
-16 9 -26 7 -49 -10 -16 -12 -29 -17 -29 -12 0 6 -9 15 -21 21 -16 9 -26 8
-45 -5 -29 -19 -31 -46 -4 -70 l20 -18 -20 -14 c-24 -17 -26 -40 -3 -65 15
-17 15 -19 0 -36 -24 -26 -21 -49 7 -67 19 -13 29 -14 45 -5 12 6 21 16 21 23
0 6 10 2 21 -10 20 -20 21 -23 5 -38 -22 -23 -20 -51 5 -69 23 -15 47 -12 65
10 9 11 14 11 28 -5 15 -16 15 -19 1 -31 -20 -16 -19 -49 1 -71 15 -17 15 -19
0 -34 -21 -22 -20 -52 3 -66 18 -12 18 -12 -1 -31 -17 -17 -20 -17 -34 -3 -24
23 -63 19 -75 -9 -23 -50 31 -88 72 -50 16 14 19 14 37 -4 18 -18 18 -19 1
-31 -24 -15 -24 -45 0 -68 19 -18 19 -18 -4 -35 -20 -15 -24 -15 -29 -3 -7 18
-57 20 -74 3 -18 -18 -15 -46 7 -65 19 -16 19 -16 -1 -33 -20 -16 -22 -16 -40
2 -23 23 -33 23 -58 -2 l-20 -20 -20 20 c-11 11 -24 20 -30 20 -15 0 -50 -38
-50 -53 0 -17 32 -47 50 -47 7 0 22 8 32 17 17 15 20 16 35 0 16 -15 15 -18 0
-35 -22 -24 -21 -45 1 -65 26 -24 49 -21 67 7 13 19 14 29 5 45 -6 12 -16 21
-23 21 -6 0 -2 10 10 22 21 20 23 21 41 5 26 -24 49 -21 67 7 13 19 14 29 5
45 -6 12 -16 21 -23 21 -6 0 -2 10 10 21 20 20 23 21 38 5 23 -22 51 -20 69 5
15 23 12 47 -10 65 -11 9 -10 14 7 30 19 17 21 18 30 1 12 -21 52 -22 69 -2
12 14 15 14 30 0 23 -21 56 -19 72 4 14 20 14 20 26 0 7 -10 23 -19 37 -19 13
0 30 9 37 19 14 20 14 20 26 0 23 -37 82 -18 82 26 0 42 -54 62 -80 30 -12
-14 -15 -14 -32 1 -16 15 -17 19 -3 34 19 21 19 54 0 70 -14 12 -14 15 0 30
44 48 -17 109 -65 65 -15 -14 -19 -13 -35 5 -10 11 -13 20 -7 20 6 0 16 10 23
21 9 18 7 27 -10 49 -17 23 -18 29 -6 34 20 7 19 63 -1 74 -15 8 -15 11 4 30
20 20 21 20 38 1 22 -24 38 -24 62 1 18 19 18 19 36 -2 17 -19 17 -22 2 -30
-20 -11 -21 -52 -1 -68 14 -12 14 -15 0 -30 -39 -44 3 -108 54 -81 25 14 29
62 6 81 -14 12 -14 15 0 30 20 22 19 57 -2 68 -15 9 -14 12 5 33 12 12 22 17
22 11 0 -7 11 -18 25 -24 46 -21 86 40 49 76 -14 15 -14 17 0 32 20 20 20 48
1 68 -14 14 -14 17 1 34 16 19 17 19 35 1 23 -23 42 -24 63 -3 23 23 20 51 -8
69 -19 13 -29 14 -45 5 -12 -6 -21 -16 -21 -23 0 -6 -10 -1 -22 11 -21 21 -22
24 -5 33 39 22 1 97 -42 81 -34 -12 -43 -64 -13 -82 16 -10 16 -10 0 -20 -23
-14 -24 -66 -2 -78 15 -8 15 -11 -3 -29 -20 -20 -21 -20 -37 -2 -9 11 -23 19
-31 19 -8 0 -22 -8 -31 -19 -16 -18 -17 -18 -35 0 -11 11 -26 19 -34 19 -8 0
-22 -8 -31 -19 -16 -18 -17 -18 -37 2 -18 18 -18 21 -3 29 24 13 21 65 -5 79
-17 9 -26 7 -48 -8 -25 -18 -27 -18 -43 -2 -14 15 -15 19 -2 30 18 15 18 66 0
76 -12 7 -11 12 4 31 19 23 19 23 30 2 14 -26 55 -26 72 -1 14 20 14 20 26 0
7 -10 23 -19 37 -19 14 0 30 9 37 19 12 20 12 20 26 0 25 -36 82 -18 82 26 0
42 -54 62 -80 30 -12 -14 -15 -14 -30 0 -9 8 -26 15 -37 15 -11 0 -26 -7 -33
-15 -12 -14 -15 -14 -30 0 -9 8 -25 15 -35 15 -10 0 -26 -7 -35 -15 -15 -14
-18 -14 -30 0 -16 20 -54 19 -71 -1 -11 -14 -13 -14 -21 0 -11 20 -62 21 -78
1z m148 -568 c9 3 22 12 28 19 9 11 14 11 28 -5 15 -16 15 -19 1 -31 -8 -7
-15 -23 -15 -35 0 -12 7 -28 15 -35 14 -12 14 -15 -1 -32 -15 -16 -19 -17 -34
-3 -22 20 -57 19 -69 -2 -9 -17 -10 -17 -29 1 -20 17 -20 18 -1 37 24 24 24
45 0 65 -17 15 -17 18 -2 33 15 16 17 16 39 0 13 -10 31 -15 40 -12z m-13
-197 c10 0 26 7 35 15 15 14 18 14 30 0 16 -19 49 -19 70 0 15 14 19 13 34 -3
15 -17 15 -20 1 -32 -8 -7 -15 -23 -15 -35 0 -12 7 -28 15 -35 14 -12 14 -15
-1 -32 -15 -16 -19 -17 -34 -3 -21 19 -54 19 -70 0 -12 -14 -15 -14 -30 0 -21
19 -54 19 -69 1 -11 -13 -15 -12 -31 1 -18 16 -18 17 0 41 20 24 15 51 -11 67
-7 5 -4 14 7 26 15 17 19 18 34 4 9 -8 25 -15 35 -15z"/>
<path d="M3590 5000 c-25 -47 30 -91 69 -55 18 15 20 15 40 -1 20 -18 20 -18
1 -31 -11 -8 -20 -23 -20 -34 0 -10 9 -27 20 -36 19 -17 19 -17 0 -30 -24 -17
-25 -40 -3 -65 15 -17 15 -19 0 -36 -22 -24 -21 -45 2 -66 37 -34 94 10 71 54
-6 11 -15 20 -21 20 -5 0 -2 11 8 24 18 24 18 24 36 5 22 -24 42 -24 66 0 18
18 19 18 36 -1 15 -18 15 -21 1 -37 -21 -24 -20 -44 4 -66 17 -15 24 -16 45
-7 14 6 25 17 25 24 0 6 9 2 21 -10 18 -20 19 -24 5 -38 -23 -23 -19 -51 8
-69 19 -13 29 -14 45 -5 12 6 21 16 21 22 0 7 9 2 21 -11 20 -21 20 -23 4 -35
-22 -16 -16 -55 11 -73 18 -12 24 -11 46 7 25 19 26 19 42 1 15 -16 15 -19 1
-31 -20 -16 -19 -67 1 -78 14 -8 14 -10 0 -21 -20 -17 -20 -50 -1 -71 14 -15
13 -19 -3 -34 -17 -15 -20 -15 -32 -1 -26 32 -80 12 -80 -30 0 -42 54 -62 80
-30 12 14 15 14 32 -1 16 -15 17 -19 3 -34 -44 -48 17 -109 65 -65 15 14 19
13 34 -3 15 -17 15 -20 1 -32 -19 -16 -19 -54 -1 -69 13 -11 12 -15 -1 -31
-16 -18 -17 -18 -41 1 -22 17 -28 18 -46 6 -32 -21 -33 -64 -3 -78 26 -12 67
1 67 21 0 6 10 0 21 -11 20 -20 20 -23 5 -31 -22 -12 -21 -64 2 -78 16 -10 16
-10 0 -20 -25 -15 -24 -66 1 -80 11 -5 24 -10 30 -10 16 0 41 30 41 50 0 10
-7 26 -16 34 -14 15 -14 17 0 32 20 20 20 43 0 65 -14 16 -14 19 2 38 18 20
18 20 31 1 18 -25 48 -25 70 -1 16 19 16 19 33 -1 23 -29 67 -18 76 19 5 20 2
31 -14 44 -24 19 -60 15 -69 -7 -4 -11 -10 -10 -30 6 -25 19 -50 17 -69 -6 -9
-11 -14 -10 -30 7 -17 19 -18 21 -1 30 21 12 22 52 2 69 -14 12 -14 15 1 32
15 16 19 17 34 3 33 -30 80 -12 80 30 0 42 -54 62 -80 30 -12 -14 -15 -14 -32
1 -16 15 -17 19 -3 34 18 20 19 52 3 68 -17 17 -53 15 -68 -3 -12 -14 -15 -14
-32 1 -16 15 -17 19 -3 34 19 21 19 54 0 70 -13 11 -13 14 0 27 19 19 19 57 0
73 -14 12 -14 15 0 30 37 40 -1 94 -51 71 -13 -6 -24 -15 -24 -21 0 -5 -9 -1
-20 10 -19 19 -19 22 -5 36 20 20 19 61 -1 72 -15 8 -15 11 2 28 18 18 20 18
37 2 21 -22 41 -23 61 -2 20 20 20 48 0 68 -20 21 -40 20 -61 -1 -17 -17 -19
-17 -35 0 -23 22 -44 22 -64 -2 -16 -18 -17 -18 -37 2 -18 18 -18 21 -3 29 9
5 16 22 16 38 0 16 -7 33 -16 38 -15 8 -15 11 5 31 11 11 21 16 21 11 0 -6 11
-15 24 -21 49 -23 88 31 51 71 -14 15 -13 19 3 34 17 15 20 15 32 1 26 -32 80
-12 80 30 0 42 -54 62 -80 30 -12 -14 -15 -14 -30 0 -20 18 -51 20 -68 3 -17
-17 -15 -53 3 -68 14 -11 14 -15 -2 -32 -14 -16 -19 -17 -28 -6 -17 23 -41 27
-64 12 -25 -18 -28 -59 -4 -73 17 -9 17 -10 -1 -29 -17 -20 -18 -20 -37 -1
-24 24 -30 24 -60 1 -23 -18 -25 -18 -41 -1 -15 16 -15 19 -2 30 9 7 14 25 12
42 -4 39 -38 53 -69 28 -20 -16 -24 -16 -39 -2 -15 15 -15 18 1 39 37 48 -25
98 -71 57 -16 -14 -18 -14 -23 0 -9 23 -64 19 -77 -5z"/>
<path d="M4625 5010 c-55 -17 -139 -75 -171 -117 -83 -109 -96 -243 -36 -365
37 -76 82 -120 162 -157 47 -22 69 -26 145 -26 109 1 164 23 241 100 160 159
113 437 -91 540 -47 23 -73 29 -139 32 -44 1 -94 -2 -111 -7z m200 -104 c55
-25 110 -81 131 -132 18 -44 18 -143 -1 -187 -23 -55 -74 -108 -130 -133 -212
-99 -435 130 -327 336 64 123 205 173 327 116z"/>
<path d="M4665 4816 c-41 -18 -83 -69 -91 -111 -15 -83 62 -175 148 -175 70 0
148 79 148 150 0 50 -37 107 -85 130 -48 23 -78 25 -120 6z"/>
<path d="M3413 4919 c-33 -12 -39 -46 -12 -75 12 -13 17 -24 11 -24 -6 0 -16
-9 -22 -21 -9 -16 -8 -26 5 -45 18 -29 46 -31 68 -6 22 24 21 38 -2 61 -19 19
-19 20 0 37 18 16 20 16 37 1 25 -22 45 -21 67 3 15 17 16 24 7 45 -14 30 -65
35 -82 8 -8 -13 -13 -15 -16 -5 -9 20 -37 30 -61 21z"/>
<path d="M3108 4719 c-11 -6 -18 -22 -18 -39 0 -17 7 -33 18 -40 16 -10 16
-10 0 -20 -22 -13 -24 -68 -3 -76 12 -5 12 -9 -3 -29 -17 -23 -17 -23 -35 -4
-20 22 -47 25 -65 7 -17 -17 -15 -67 3 -74 12 -5 11 -11 -6 -34 -17 -22 -19
-32 -10 -48 15 -28 40 -35 67 -17 27 18 32 56 9 75 -14 12 -14 15 1 31 14 16
19 16 28 5 19 -23 44 -26 68 -7 22 16 24 16 39 0 15 -15 15 -18 -2 -33 -24
-20 -24 -41 -1 -64 18 -18 18 -20 1 -41 -19 -23 -16 -48 9 -66 11 -9 10 -14
-8 -30 -20 -18 -22 -18 -31 -2 -20 35 -79 15 -79 -28 0 -43 59 -63 79 -28 9
17 10 17 28 0 28 -25 61 -22 74 7 12 25 -2 66 -21 66 -6 0 -1 9 10 20 24 24
25 43 4 65 -15 15 -15 17 0 34 20 22 21 55 1 71 -14 12 -14 15 1 31 14 16 19
16 28 5 18 -22 42 -25 65 -10 26 19 27 45 3 67 -23 21 -41 21 -63 1 -17 -15
-19 -15 -34 0 -22 22 -51 20 -68 -4 -13 -19 -13 -19 -31 1 -16 19 -16 22 -2
38 20 22 20 45 0 66 -15 15 -15 17 0 34 21 23 20 44 -2 64 -21 19 -30 20 -54
6z"/>
<path d="M3597 4512 c-21 -23 -22 -46 -2 -62 14 -12 14 -15 0 -30 -22 -25 -18
-57 9 -75 19 -13 29 -14 45 -6 35 19 38 72 5 85 -12 5 -12 9 3 24 17 18 19 18
41 1 24 -19 49 -16 68 7 9 11 14 11 28 -5 15 -16 15 -19 1 -31 -8 -7 -15 -23
-15 -35 0 -12 7 -28 15 -35 14 -12 14 -15 0 -30 -18 -20 -20 -51 -3 -68 17
-17 53 -15 68 3 10 13 15 12 35 -3 22 -16 22 -17 4 -30 -23 -16 -25 -55 -4
-72 14 -12 14 -15 -1 -32 -16 -17 -19 -17 -35 -2 -39 35 -93 -3 -71 -50 13
-30 46 -34 72 -11 15 14 19 13 34 -3 15 -17 15 -20 1 -32 -20 -16 -19 -44 1
-65 15 -15 15 -17 -1 -35 -15 -16 -20 -17 -29 -6 -19 23 -44 25 -69 6 -20 -16
-26 -17 -30 -6 -9 22 -45 26 -69 7 -19 -16 -23 -16 -38 -2 -15 15 -15 18 3 42
15 22 17 31 8 48 -15 26 -65 29 -81 4 -10 -17 -10 -17 -20 0 -17 27 -68 22
-82 -8 -10 -22 -8 -29 12 -50 13 -14 18 -25 12 -25 -7 0 -18 -11 -24 -25 -9
-21 -8 -28 7 -45 22 -24 42 -25 67 -3 17 15 19 15 36 0 25 -22 48 -21 65 3 13
19 13 19 30 0 9 -11 26 -20 36 -20 11 0 26 9 34 20 13 19 13 19 31 -1 16 -19
16 -22 2 -38 -20 -22 -20 -40 1 -63 15 -17 15 -19 -1 -37 -17 -19 -18 -19 -37
0 -10 10 -25 19 -32 19 -8 0 -22 -9 -31 -19 -17 -19 -18 -19 -37 0 -10 10 -25
19 -32 19 -8 0 -22 -9 -31 -19 -17 -19 -18 -19 -37 0 -23 23 -37 24 -61 2 -17
-15 -19 -15 -36 0 -25 23 -48 21 -65 -3 l-14 -20 -18 20 c-17 19 -17 21 -2 38
24 26 21 49 -7 67 -19 13 -29 14 -45 5 -12 -6 -21 -16 -21 -23 0 -6 -10 -2
-21 10 -20 20 -21 23 -5 38 20 21 20 43 0 66 -15 17 -15 19 0 35 16 15 18 15
36 -1 40 -36 96 7 70 55 -13 24 -65 27 -78 4 -8 -14 -10 -14 -21 0 -8 9 -26
16 -42 16 -15 0 -32 -7 -37 -16 -8 -14 -10 -14 -21 0 -17 20 -67 21 -79 1 -7
-14 -10 -13 -25 3 -16 17 -16 20 -2 32 32 26 12 80 -30 80 -42 0 -62 -54 -30
-80 14 -12 14 -15 -1 -32 -15 -16 -19 -17 -34 -3 -20 18 -52 19 -68 3 -17 -17
-15 -53 3 -68 13 -11 13 -14 0 -27 -20 -19 -19 -60 1 -71 15 -8 15 -11 -3 -29
-20 -20 -21 -20 -37 -2 -20 24 -41 24 -64 -1 -18 -19 -18 -19 -35 0 -22 26
-41 25 -67 -2 -11 -12 -20 -16 -20 -10 0 7 -11 18 -25 24 -46 21 -86 -40 -50
-76 14 -14 14 -17 -1 -34 -16 -19 -17 -19 -35 -1 -24 24 -41 24 -63 0 -17 -19
-18 -19 -37 0 -19 19 -19 19 0 38 40 40 -8 97 -55 66 -28 -18 -31 -41 -7 -67
15 -17 15 -19 0 -36 -21 -23 -21 -41 -1 -63 15 -17 15 -19 0 -34 -20 -21 -20
-44 0 -66 15 -17 15 -19 0 -34 -20 -21 -20 -44 0 -66 15 -17 15 -19 0 -34 -20
-20 -20 -43 -2 -64 12 -14 13 -19 0 -35 -13 -18 -15 -18 -32 -3 -42 38 -96 2
-73 -49 13 -29 51 -32 76 -7 16 16 18 16 27 0 11 -21 51 -22 68 -2 12 14 15
14 30 0 9 -8 26 -15 37 -15 11 0 26 7 33 15 12 14 15 14 32 -1 16 -15 17 -19
3 -34 -18 -20 -19 -52 -3 -68 17 -17 53 -15 68 3 12 14 15 14 32 -1 16 -15 17
-19 3 -34 -19 -21 -19 -54 0 -70 14 -12 14 -15 -1 -31 -23 -26 -14 -62 20 -74
24 -8 31 -6 45 11 l16 21 16 -21 c14 -18 21 -19 45 -11 23 8 29 17 29 39 0 18
-8 34 -21 42 -18 13 -24 12 -46 -6 -25 -19 -26 -19 -42 -1 -15 16 -15 19 -1
31 19 16 19 54 0 70 -13 10 -12 15 3 35 16 22 17 22 30 4 7 -11 24 -19 37 -19
13 0 30 8 37 19 13 18 14 18 30 -4 15 -20 16 -25 3 -35 -32 -26 -12 -80 30
-80 42 0 62 54 30 80 -13 10 -12 15 3 35 16 22 17 22 30 4 25 -36 82 -18 82
26 0 42 -54 62 -80 30 -12 -14 -15 -14 -30 0 -21 19 -49 19 -70 0 -15 -14 -19
-13 -34 3 -15 17 -15 20 -1 32 8 7 15 23 15 35 0 12 -7 28 -15 35 -14 12 -14
15 0 30 30 33 12 80 -30 80 -42 0 -62 -54 -30 -80 14 -12 14 -15 0 -30 -8 -9
-15 -26 -15 -37 0 -11 7 -26 15 -33 14 -12 14 -15 -1 -32 -15 -16 -19 -17 -34
-3 -9 8 -25 15 -35 15 -10 0 -26 -7 -35 -15 -15 -14 -19 -13 -34 3 -15 17 -15
20 -1 32 18 15 20 51 3 68 -17 17 -53 15 -68 -3 -12 -14 -15 -14 -32 1 -16 15
-17 19 -3 34 19 21 19 54 -1 71 -14 11 -14 13 0 21 19 11 21 59 4 76 -18 18
-46 15 -65 -7 -16 -19 -16 -19 -33 2 -14 17 -15 24 -5 32 22 18 24 44 6 66
-16 20 -16 24 -2 39 15 16 17 16 38 -3 19 -17 27 -18 48 -9 14 6 25 17 25 24
0 6 11 1 25 -12 21 -20 28 -22 50 -12 30 14 35 65 9 80 -15 8 -15 11 3 29 20
20 21 20 37 2 20 -24 41 -24 64 -1 16 16 18 16 35 0 22 -23 43 -23 63 1 16 18
17 18 35 0 11 -11 26 -19 34 -19 8 0 22 8 31 19 16 18 17 18 35 0 11 -11 26
-19 34 -19 8 0 22 8 31 19 16 18 17 18 35 0 24 -24 41 -24 64 1 17 19 18 19
35 -2 16 -20 16 -22 -2 -40 -23 -23 -23 -33 0 -55 17 -17 17 -19 -1 -44 -15
-21 -17 -31 -8 -47 15 -28 40 -35 67 -17 28 18 31 41 7 67 -15 17 -15 19 1 37
17 19 18 19 37 0 24 -24 30 -24 60 -1 23 17 25 18 41 1 15 -16 15 -19 -3 -35
-10 -9 -19 -23 -19 -31 0 -15 35 -53 50 -53 5 0 19 9 30 20 l20 20 20 -20 c25
-25 35 -25 58 -2 16 17 18 17 43 -1 22 -15 31 -17 48 -8 11 7 21 16 21 22 0 6
12 1 26 -10 33 -26 39 -26 63 -2 19 19 20 19 36 1 16 -18 16 -20 1 -35 -9 -9
-16 -24 -16 -32 0 -9 7 -24 16 -34 15 -17 15 -19 0 -35 -16 -15 -18 -15 -35 0
-10 9 -25 16 -34 16 -8 0 -23 -7 -32 -16 -15 -15 -17 -15 -35 1 -40 36 -96 -7
-70 -55 13 -24 65 -27 78 -4 8 14 10 14 21 0 17 -20 67 -21 79 -1 7 14 10 13
25 -3 16 -17 16 -20 2 -32 -8 -7 -15 -23 -15 -35 0 -12 7 -28 15 -35 14 -12
14 -15 0 -30 -8 -9 -15 -26 -15 -37 0 -11 7 -26 15 -33 14 -12 14 -15 -2 -32
-15 -16 -18 -17 -25 -3 -11 18 -59 20 -76 3 -17 -17 -15 -44 4 -63 15 -15 15
-17 -2 -36 -15 -17 -19 -18 -26 -4 -12 20 -62 19 -79 -1 -11 -14 -13 -14 -21
0 -15 26 -67 20 -80 -9 -9 -21 -8 -28 7 -45 22 -24 42 -25 67 -3 17 15 20 16
35 0 16 -15 15 -18 0 -35 -22 -24 -21 -45 1 -65 26 -24 49 -21 67 7 13 19 14
29 5 45 -6 12 -16 21 -23 21 -6 0 -2 10 10 21 20 20 23 21 38 5 21 -20 43 -20
66 0 17 15 19 15 34 0 19 -19 46 -21 63 -4 17 17 15 65 -3 76 -14 7 -13 11 5
27 20 18 22 19 31 2 12 -21 47 -22 68 -3 14 12 19 13 35 0 18 -13 18 -15 3
-32 -22 -24 -22 -58 0 -71 17 -9 16 -11 -1 -30 -37 -41 5 -97 54 -71 24 13 28
68 5 76 -12 5 -12 9 2 28 16 21 18 21 35 4 23 -23 53 -23 70 1 14 20 14 20 26
0 14 -23 40 -24 69 -4 18 13 22 12 37 -4 15 -16 15 -19 1 -24 -20 -8 -20 -63
1 -75 15 -8 14 -12 -5 -31 -18 -18 -22 -19 -27 -7 -8 21 -40 29 -64 16 -25
-13 -27 -65 -4 -78 15 -8 15 -11 -2 -28 -18 -18 -20 -18 -36 -1 -23 22 -44 22
-64 -2 -16 -18 -17 -18 -35 0 -11 11 -26 19 -34 19 -8 0 -22 -8 -31 -19 -16
-18 -17 -18 -37 2 -18 18 -18 21 -3 29 26 15 21 66 -9 80 -21 9 -28 8 -45 -7
-24 -22 -25 -42 -4 -66 15 -17 15 -19 0 -34 -20 -21 -20 -44 0 -66 14 -16 14
-19 -2 -38 -18 -20 -18 -20 -31 -1 -18 25 -47 25 -70 1 -18 -19 -18 -19 -36 5
-10 13 -13 24 -8 24 6 0 15 9 21 20 23 44 -34 88 -71 54 -23 -21 -24 -42 -3
-65 15 -17 15 -19 0 -34 -22 -23 -20 -51 5 -69 23 -15 47 -12 65 10 9 11 14
10 29 -6 16 -18 16 -20 1 -35 -20 -20 -21 -49 -2 -64 12 -10 12 -16 -2 -41
-20 -35 -9 -63 27 -68 45 -7 70 50 35 79 -14 11 -14 13 0 21 20 11 21 62 2 77
-13 11 -12 15 2 30 16 17 18 17 40 0 33 -25 66 -11 70 28 2 17 -3 35 -12 42
-13 11 -13 14 2 30 16 16 18 16 43 -2 22 -15 31 -17 48 -8 11 7 21 17 21 23 0
7 9 2 20 -10 26 -27 44 -28 68 -2 18 19 18 19 36 -1 16 -19 16 -22 1 -33 -22
-16 -16 -55 11 -73 18 -12 24 -11 46 6 24 19 25 19 41 1 13 -16 14 -20 1 -31
-17 -14 -18 -51 -2 -67 16 -16 48 -15 68 3 15 14 19 13 34 -3 15 -17 15 -20 1
-32 -18 -15 -20 -51 -3 -68 17 -17 53 -15 68 3 12 14 15 14 30 0 21 -19 54
-19 70 0 11 13 14 13 27 0 35 -35 91 -7 79 40 -9 34 -50 44 -77 19 -19 -17
-21 -18 -30 -1 -13 22 -47 22 -71 0 -17 -15 -19 -15 -32 3 -13 16 -12 21 0 35
18 21 18 44 -2 64 -15 15 -15 17 1 35 15 16 20 17 29 6 18 -22 42 -25 65 -10
25 18 27 46 5 69 -15 15 -15 17 0 34 20 22 20 40 -1 63 -15 17 -15 19 1 37 17
19 18 19 37 0 24 -24 41 -24 63 0 16 18 19 18 35 3 16 -16 16 -18 -1 -43 -34
-46 11 -95 58 -64 28 18 31 41 7 67 -15 17 -15 20 -1 34 14 15 18 14 42 -1 25
-16 27 -16 52 0 24 15 28 16 42 1 14 -14 14 -17 -1 -34 -22 -24 -21 -38 2 -61
19 -19 19 -20 0 -37 -18 -16 -20 -16 -37 -1 -10 10 -26 17 -35 17 -15 0 -47
-35 -47 -52 0 -11 38 -48 50 -48 6 0 19 9 30 20 20 20 20 20 39 1 19 -19 19
-20 0 -37 -24 -22 -24 -39 0 -63 18 -18 18 -19 -1 -35 -17 -15 -20 -15 -34 -1
-21 21 -47 19 -69 -5 -15 -17 -16 -24 -7 -45 14 -30 65 -35 82 -7 10 16 10 16
20 0 14 -23 66 -24 78 -2 8 15 11 15 31 -5 11 -11 16 -21 11 -21 -6 0 -15 -11
-21 -24 -23 -50 36 -90 75 -50 22 21 20 39 -6 64 -12 11 -16 20 -10 20 7 0 18
11 24 25 10 22 8 29 -12 50 -13 14 -18 25 -12 25 6 0 16 9 22 21 9 16 8 26 -5
45 -18 28 -46 31 -70 8 -15 -15 -17 -15 -35 1 -18 16 -18 17 1 36 10 10 19 25
19 32 0 8 -9 22 -19 31 -18 16 -18 19 -3 35 16 16 18 16 43 -1 46 -34 95 11
64 58 -14 22 -14 26 0 48 13 19 14 29 5 45 -6 12 -15 21 -21 21 -5 0 0 13 12
29 17 23 19 33 10 49 -16 30 -42 35 -70 14 -24 -17 -27 -17 -42 -1 -16 16 -15
18 4 37 18 18 19 25 9 47 -16 35 -68 36 -84 0 -10 -22 -8 -29 12 -50 13 -14
18 -25 12 -25 -7 0 -18 -11 -24 -25 -9 -21 -8 -28 7 -45 17 -19 17 -22 3 -36
-14 -15 -18 -14 -41 1 -20 13 -30 14 -46 5 -12 -6 -21 -15 -21 -21 0 -5 -13 0
-29 12 -23 17 -32 19 -50 10 -11 -7 -21 -17 -21 -23 0 -6 -10 -2 -23 10 -29
27 -42 27 -66 3 -19 -19 -20 -19 -36 -1 -16 18 -16 20 -1 35 9 9 16 24 16 32
0 9 -7 24 -16 34 -15 17 -15 19 0 35 16 15 18 15 35 0 22 -20 45 -20 66 0 15
15 17 15 34 0 23 -21 44 -20 64 2 20 22 22 43 5 60 -17 17 -65 15 -76 -4 -8
-14 -10 -14 -21 0 -17 20 -67 21 -79 1 -7 -14 -11 -13 -26 4 -17 19 -17 21 -2
36 31 31 13 75 -30 75 -13 0 -29 -7 -37 -15 -13 -13 -16 -13 -27 0 -16 19 -54
19 -70 0 -12 -14 -15 -14 -32 1 -16 15 -17 19 -3 34 44 48 -17 109 -65 65 -15
-14 -19 -13 -34 3 -15 17 -15 20 -1 32 8 7 15 23 15 35 0 12 -7 28 -15 35 -14
12 -14 15 0 30 30 33 12 80 -30 80 -42 0 -62 -54 -30 -80 14 -12 14 -15 0 -30
-19 -21 -19 -54 0 -70 14 -12 14 -15 0 -30 -8 -9 -15 -26 -15 -37 0 -11 7 -26
15 -33 14 -12 14 -15 0 -30 -19 -21 -19 -49 0 -70 14 -15 13 -19 -3 -34 -17
-15 -20 -15 -32 -1 -7 8 -23 15 -35 15 -12 0 -28 -7 -35 -15 -12 -14 -15 -14
-32 1 -16 15 -17 19 -3 34 19 21 19 54 0 70 -14 12 -14 15 0 30 19 21 19 49 0
70 -14 15 -14 18 0 30 18 15 20 51 3 68 -17 17 -53 15 -68 -3 -12 -14 -15 -14
-30 0 -21 19 -49 19 -70 0 -15 -14 -19 -13 -34 3 -15 17 -15 20 -1 32 19 16
19 54 1 69 -13 11 -12 15 2 30 15 16 19 16 34 4 9 -8 29 -13 45 -11 23 2 29 8
31 34 2 18 -3 36 -12 43 -13 11 -13 14 2 30 16 16 18 16 43 -2 36 -26 69 -9
69 33 0 47 -68 67 -84 24 -5 -12 -9 -11 -26 6 -25 25 -46 25 -66 1 -16 -18
-17 -18 -37 2 -18 18 -18 21 -3 29 9 5 16 22 16 38 0 16 -7 33 -16 38 -15 8
-14 12 5 31 18 18 22 19 27 7 8 -21 40 -29 64 -16 24 13 28 65 6 77 -12 7 -11
12 5 32 16 19 20 20 25 7 15 -38 84 -25 84 17 0 46 -37 65 -72 38 -22 -17 -24
-17 -40 0 -14 15 -15 19 -2 30 18 15 18 53 -1 69 -14 12 -14 15 0 30 8 9 15
26 15 37 0 11 -7 26 -15 33 -14 12 -14 15 0 30 8 9 15 26 15 37 0 11 -7 26
-15 33 -14 12 -14 15 1 32 15 16 19 17 34 3 20 -18 52 -19 68 -3 17 17 15 53
-3 68 -13 11 -13 14 -2 24 36 28 18 86 -27 86 -43 0 -63 -53 -31 -80 14 -12
14 -15 -1 -32 -15 -16 -19 -17 -34 -3 -21 19 -54 19 -70 0 -12 -14 -15 -14
-31 1 -17 15 -17 16 2 35 24 24 24 41 -1 64 -18 16 -19 20 -5 27 18 11 20 59
3 76 -17 17 -44 15 -63 -4 -15 -15 -17 -15 -34 0 -10 9 -25 16 -34 16 -8 0
-23 -7 -32 -16 -15 -15 -17 -15 -34 0 -23 21 -44 20 -64 -2z m-467 -572 c11 0
27 9 37 19 18 19 18 19 36 -5 10 -13 13 -24 8 -24 -6 0 -15 -10 -22 -21 -9
-17 -7 -26 8 -48 18 -24 18 -27 3 -42 -15 -14 -19 -14 -40 3 -28 23 -35 23
-59 -1 -19 -19 -20 -19 -36 -1 -16 18 -16 20 -1 35 20 21 20 44 0 66 -14 16
-14 19 2 38 18 20 18 20 31 1 8 -11 23 -20 33 -20z m795 -690 c10 0 26 7 35
15 15 14 19 13 34 -3 15 -17 15 -20 1 -32 -8 -7 -15 -23 -15 -35 0 -12 7 -28
15 -35 14 -12 14 -15 -1 -32 -15 -16 -19 -17 -34 -3 -21 19 -54 19 -69 1 -11
-13 -15 -12 -31 2 -17 14 -18 18 -5 32 19 21 19 54 0 70 -14 12 -14 15 1 32
15 16 19 17 34 3 9 -8 25 -15 35 -15z m500 -400 c8 0 22 8 31 19 16 18 17 18
37 -2 18 -18 18 -21 3 -29 -22 -12 -21 -64 2 -78 16 -10 16 -10 0 -20 -22 -13
-24 -68 -3 -76 12 -5 12 -9 -3 -29 -17 -23 -17 -23 -35 -4 -23 24 -52 24 -70
-1 -13 -19 -13 -19 -30 0 -21 25 -42 25 -64 3 -17 -17 -19 -17 -36 0 -16 16
-16 19 -2 33 20 20 19 61 -1 72 -15 8 -15 11 1 29 17 20 18 20 36 2 23 -23 42
-24 63 -3 20 20 20 48 1 68 -14 14 -14 17 1 34 16 19 17 19 35 1 11 -11 26
-19 34 -19z"/>
<path d="M1906 4309 c-16 -23 -11 -49 11 -62 11 -7 9 -13 -7 -34 -18 -23 -19
-29 -7 -47 18 -27 57 -33 73 -11 12 16 14 16 29 1 21 -21 61 -21 73 1 9 16 11
16 27 0 9 -9 25 -17 35 -17 22 0 50 25 50 45 0 20 -28 45 -50 45 -10 0 -26 -8
-35 -17 -16 -16 -18 -16 -27 0 -11 21 -52 22 -72 2 -14 -14 -17 -14 -33 2 -17
17 -17 19 0 36 21 21 22 41 1 61 -22 22 -50 20 -68 -5z"/>
<path d="M687 4232 c-23 -25 -21 -48 5 -66 l22 -16 -22 -16 c-27 -18 -28 -45
-4 -67 25 -23 48 -21 66 4 l14 21 21 -21 21 -21 -20 -20 c-24 -24 -24 -29 -4
-58 18 -27 45 -28 67 -4 23 25 21 48 -3 65 l-20 14 20 18 c26 24 25 50 -2 69
-29 20 -34 20 -58 -4 l-20 -20 -20 20 -20 20 20 20 c24 24 24 29 4 58 -18 27
-45 28 -67 4z"/>
<path d="M4686 4214 c-21 -21 -20 -33 6 -61 12 -13 16 -23 10 -23 -6 0 -16 -9
-22 -21 -9 -16 -8 -26 5 -45 18 -28 46 -31 70 -8 15 15 17 15 35 -1 18 -16 18
-17 -1 -36 -10 -10 -19 -25 -19 -32 0 -17 32 -47 50 -47 7 0 22 7 32 17 17 15
19 15 36 0 23 -21 41 -21 63 -1 17 15 19 15 34 0 24 -23 52 -20 70 8 13 19 14
29 5 45 -6 12 -16 21 -22 21 -6 0 -1 11 12 25 20 21 22 28 12 50 -6 14 -17 25
-24 25 -6 0 -2 9 10 20 26 25 28 43 6 64 -40 40 -101 -3 -75 -53 7 -11 16 -21
21 -21 6 0 0 -10 -11 -21 -20 -20 -23 -20 -31 -5 -12 22 -64 21 -78 -1 -10
-17 -10 -17 -20 0 -14 22 -66 23 -78 1 -8 -15 -11 -15 -31 5 -11 11 -16 21
-11 21 6 0 15 11 21 24 23 50 -36 90 -75 50z"/>
<path d="M1412 4118 c-17 -17 -15 -53 3 -68 14 -12 14 -15 0 -30 -18 -20 -20
-51 -3 -68 17 -17 53 -15 68 3 12 14 15 14 30 0 9 -8 26 -15 37 -15 11 0 26 7
33 15 12 14 15 14 30 0 20 -18 51 -20 68 -3 35 35 -14 102 -57 78 -12 -6 -21
-16 -21 -22 0 -6 -8 -4 -18 5 -23 21 -56 22 -72 2 -12 -14 -15 -14 -32 1 -16
15 -17 19 -3 34 30 33 12 80 -30 80 -12 0 -26 -5 -33 -12z"/>
<path d="M492 4034 c-27 -19 -28 -49 -2 -71 19 -17 19 -17 0 -30 -25 -18 -26
-48 -1 -69 18 -16 18 -17 -3 -38 -20 -20 -22 -20 -34 -4 -15 21 -52 24 -70 6
-18 -18 -14 -55 7 -70 20 -14 20 -14 0 -26 -10 -7 -19 -23 -19 -37 0 -13 9
-30 19 -37 20 -14 20 -14 0 -26 -25 -16 -25 -57 0 -74 20 -14 20 -14 0 -26
-37 -23 -18 -82 26 -82 44 0 63 59 27 81 -18 11 -18 13 2 33 20 20 22 20 34 4
15 -21 52 -24 70 -6 18 18 14 55 -7 70 -20 14 -20 14 0 26 24 15 25 57 1 74
-16 12 -16 14 4 34 21 21 22 21 38 3 20 -24 53 -24 68 0 12 19 12 19 33 -1 21
-20 21 -22 3 -40 -24 -24 -23 -43 4 -67 18 -18 19 -21 5 -27 -22 -8 -30 -39
-17 -64 14 -25 65 -27 80 -2 10 16 10 16 20 0 14 -23 66 -24 79 -1 9 17 10 17
29 -1 42 -37 97 -1 74 48 -14 32 -55 35 -75 6 -13 -19 -13 -19 -30 0 -21 24
-44 25 -69 3 -17 -15 -19 -15 -38 2 l-20 18 20 19 c25 24 25 44 0 65 -20 17
-20 17 2 40 18 19 20 27 10 48 -14 30 -65 35 -80 9 -8 -15 -11 -15 -29 3 -19
19 -19 21 -2 42 25 31 11 65 -29 69 -22 2 -34 -3 -46 -20 -13 -18 -16 -19 -16
-6 0 9 -7 21 -16 26 -14 8 -14 10 0 21 23 19 20 68 -3 81 -25 13 -22 13 -49
-6z"/>
<path d="M5520 4030 c-25 -25 -25 -32 -2 -60 18 -23 18 -24 -1 -43 -18 -18
-21 -18 -29 -3 -5 9 -22 16 -38 16 -55 0 -66 -73 -13 -86 20 -6 31 -2 45 16
l19 23 15 -21 c19 -27 45 -28 67 -4 22 24 21 38 -2 61 -19 19 -19 20 0 37 10
9 19 23 19 31 0 15 -35 53 -50 53 -5 0 -19 -9 -30 -20z"/>
<path d="M1010 4015 c-19 -23 -4 -64 27 -71 20 -5 30 -2 43 14 l17 20 17 -20
c16 -18 16 -21 2 -37 -21 -23 -20 -45 0 -66 16 -15 15 -18 -5 -38 -11 -12 -21
-16 -21 -10 0 7 -9 17 -21 23 -16 9 -26 8 -45 -5 -28 -18 -31 -41 -7 -67 15
-17 15 -19 0 -36 -21 -23 -21 -41 -1 -63 15 -17 15 -19 0 -34 -23 -24 -20 -52
8 -70 19 -13 29 -14 45 -5 26 13 29 65 5 78 -15 8 -15 11 4 30 l20 20 20 -21
c18 -18 25 -19 47 -9 30 14 35 65 9 80 -15 8 -14 12 5 31 18 18 22 19 27 7 8
-21 40 -29 64 -16 26 14 27 65 3 79 -17 9 -17 11 0 23 26 19 19 68 -10 79 -15
5 -29 3 -45 -10 -22 -17 -24 -17 -40 0 -15 16 -15 19 -2 30 9 7 14 25 12 43
-2 26 -8 32 -31 34 -17 2 -36 -3 -47 -13 -16 -14 -18 -14 -23 0 -8 19 -61 20
-77 0z"/>
<path d="M1899 4009 c-9 -18 -7 -27 10 -50 12 -16 17 -29 12 -29 -6 0 -15 -9
-21 -21 -9 -16 -8 -26 5 -45 18 -29 46 -31 68 -6 22 25 21 48 -3 65 -19 13
-19 13 1 31 20 16 22 16 40 1 39 -36 94 8 69 55 -13 24 -65 27 -78 4 -8 -14
-10 -14 -21 0 -20 24 -68 20 -82 -5z"/>
<path d="M4690 3820 c-25 -25 -25 -32 -2 -60 18 -23 18 -24 0 -42 -23 -23 -23
-33 0 -55 17 -17 17 -19 0 -44 -35 -48 13 -97 61 -62 25 18 27 18 44 1 22 -23
32 -23 57 2 l20 20 20 -20 c25 -25 35 -25 61 1 11 11 22 19 23 17 1 -1 8 -11
15 -21 12 -15 11 -20 -4 -37 -27 -30 -7 -70 34 -70 45 0 60 33 32 71 -12 16
-17 29 -12 29 6 0 15 10 22 21 9 18 7 27 -10 50 -12 16 -17 29 -12 29 6 0 15
9 21 20 23 44 -34 88 -71 54 -23 -21 -24 -42 -2 -66 15 -17 16 -20 0 -35 -15
-16 -18 -15 -35 0 -10 9 -25 17 -32 17 -7 0 -22 -8 -32 -17 -17 -15 -20 -16
-35 0 -16 15 -15 18 0 35 23 25 21 45 -4 68 -20 18 -22 18 -51 1 -28 -16 -33
-16 -46 -3 -14 14 -14 17 1 34 23 25 21 48 -5 66 -29 20 -34 20 -58 -4z"/>
<path d="M1316 3724 c-20 -20 -20 -48 0 -68 21 -21 40 -20 63 3 18 18 19 18
35 -1 16 -18 16 -21 1 -32 -22 -16 -16 -55 10 -72 18 -12 24 -11 43 2 26 18
29 59 5 72 -16 9 -16 11 0 27 41 41 -1 103 -52 76 -11 -7 -21 -16 -21 -21 0
-6 -9 -1 -20 10 -24 24 -43 25 -64 4z"/>
<path d="M1718 3729 c-11 -6 -18 -22 -18 -39 0 -17 7 -33 18 -39 16 -9 16 -11
-3 -25 -17 -12 -22 -13 -36 0 -8 8 -25 14 -37 14 -26 0 -55 -41 -46 -64 14
-37 75 -44 88 -10 5 12 8 12 24 -3 16 -16 17 -20 5 -35 -8 -9 -13 -29 -11 -45
2 -23 8 -29 34 -31 18 -2 36 3 43 12 11 13 14 13 30 -2 16 -16 16 -18 0 -40
-19 -25 -15 -58 8 -66 12 -5 11 -10 -6 -32 -21 -26 -17 -53 9 -69 6 -4 3 -16
-10 -32 -20 -25 -19 -34 6 -64 11 -13 10 -18 -6 -31 -16 -14 -20 -15 -31 -2
-14 17 -51 18 -67 2 -16 -16 -15 -53 2 -67 13 -11 12 -15 -2 -30 -16 -17 -18
-17 -35 1 -23 23 -42 23 -67 -2 -24 -24 -24 -29 -4 -58 18 -25 56 -29 74 -7
12 14 15 14 30 0 21 -19 44 -19 65 1 15 15 17 15 34 0 22 -20 45 -20 66 0 15
15 17 15 35 -1 18 -16 18 -17 -1 -36 -24 -24 -24 -31 -1 -59 17 -21 17 -25 3
-40 -15 -16 -17 -16 -38 3 -19 17 -27 18 -48 9 -14 -6 -25 -17 -25 -24 0 -6
-12 -1 -26 13 -24 22 -27 23 -53 8 -24 -14 -30 -14 -46 -3 -25 18 -44 18 -66
-2 -17 -15 -19 -15 -34 0 -15 15 -15 17 -1 32 22 22 20 50 -6 68 -28 20 -33
20 -52 0 -21 -21 -20 -60 2 -74 16 -10 16 -10 0 -20 -25 -15 -24 -66 1 -80 27
-14 37 -13 56 6 15 15 17 15 34 0 22 -20 41 -20 66 -2 16 11 22 11 46 -3 26
-15 29 -14 53 8 14 14 26 19 26 13 0 -7 11 -18 25 -24 22 -10 29 -8 50 12 14
13 25 18 25 12 0 -7 11 -18 25 -24 22 -10 29 -8 50 12 14 13 25 18 25 12 0 -7
11 -18 25 -24 21 -9 28 -8 45 7 24 22 25 42 3 67 -15 17 -16 20 0 35 15 16 18
15 35 0 24 -22 45 -21 65 1 22 24 21 38 -2 61 -19 19 -19 20 0 37 18 16 20 16
37 1 26 -24 49 -21 67 7 13 19 14 29 5 45 -14 26 -65 28 -80 4 -10 -17 -10
-17 -20 0 -14 22 -66 23 -78 1 -8 -15 -12 -14 -31 5 -18 18 -19 22 -7 27 43
17 23 84 -25 84 -43 0 -61 -41 -32 -73 19 -21 19 -23 2 -39 -15 -14 -19 -15
-30 -2 -15 19 -66 18 -77 -1 -7 -14 -11 -13 -26 4 -17 19 -17 21 -2 36 20 20
21 49 1 65 -13 11 -13 15 0 33 20 29 19 54 -4 68 -18 12 -18 12 1 31 17 17 20
17 34 3 20 -20 61 -19 72 2 9 16 11 16 27 0 23 -23 62 -22 75 3 13 24 5 56
-16 64 -12 5 -11 9 6 26 24 24 25 43 4 64 -20 20 -43 20 -65 0 -16 -14 -19
-14 -37 2 l-20 17 20 17 c16 13 19 23 14 43 -8 35 -49 46 -76 22 -18 -16 -20
-16 -36 -1 -15 16 -15 18 0 35 21 23 20 44 -2 64 -25 22 -48 21 -65 -3 -13
-19 -13 -19 -31 1 -16 19 -16 22 -2 38 21 23 20 44 -2 64 -21 19 -30 20 -54 6z"/>
<path d="M5112 3728 c-18 -18 -14 -55 7 -70 20 -14 20 -14 0 -26 -10 -7 -19
-23 -19 -37 0 -13 9 -30 19 -37 20 -14 20 -14 0 -26 -25 -16 -24 -57 2 -76
l21 -14 -22 -12 c-27 -15 -24 -57 7 -77 20 -14 24 -13 45 9 l23 23 21 -21 c21
-21 21 -22 3 -38 -26 -22 -24 -52 5 -71 19 -13 29 -14 45 -5 26 14 29 65 4 79
-17 9 -17 10 0 28 9 11 17 28 17 39 0 43 -48 59 -76 26 -15 -18 -17 -18 -39 2
-23 20 -23 21 -4 34 25 17 24 57 0 74 -20 14 -20 14 0 26 10 7 19 23 19 37 0
14 -9 30 -19 37 -20 12 -20 12 0 26 36 25 18 82 -26 82 -12 0 -26 -5 -33 -12z"/>
<path d="M2808 3629 c-18 -10 -24 -45 -10 -65 14 -21 41 -23 65 -4 23 18 24
18 40 0 13 -16 14 -20 1 -31 -31 -25 -10 -79 31 -79 43 0 63 59 28 79 -17 9
-16 12 5 33 12 12 22 17 22 11 0 -7 9 -17 21 -23 16 -9 26 -8 45 5 28 18 31
46 8 69 -21 21 -40 20 -63 -3 -18 -18 -19 -18 -35 0 -20 24 -41 24 -63 2 -17
-17 -19 -17 -35 0 -20 19 -35 21 -60 6z"/>
<path d="M4398 3629 c-22 -13 -24 -65 -2 -77 14 -8 14 -10 0 -21 -9 -8 -16
-26 -16 -42 0 -15 7 -32 16 -37 14 -8 14 -10 0 -21 -20 -17 -21 -55 -1 -71 14
-12 14 -15 0 -30 -30 -33 -12 -80 30 -80 42 0 62 54 30 80 -14 12 -14 15 1 32
15 16 19 17 34 3 37 -33 88 -7 76 40 -8 33 -50 44 -76 20 -18 -16 -20 -16 -36
-1 -15 16 -15 18 0 35 9 10 16 25 16 34 0 8 -7 23 -16 32 -15 15 -15 17 0 34
20 22 20 45 0 65 -18 18 -32 20 -56 5z"/>
<path d="M1116 3524 c-19 -18 -21 -45 -4 -62 17 -17 65 -15 76 3 7 14 11 13
27 -5 18 -20 19 -22 2 -31 -20 -11 -23 -49 -5 -67 17 -17 53 -15 68 3 12 14
15 14 30 0 9 -8 26 -15 37 -15 11 0 26 7 33 15 12 14 15 14 32 -1 16 -15 17
-19 3 -34 -19 -21 -19 -54 0 -70 14 -12 14 -15 -1 -32 -15 -16 -19 -17 -34 -3
-21 19 -49 19 -70 0 -15 -14 -18 -14 -30 0 -15 18 -51 20 -68 3 -16 -16 -15
-48 3 -68 14 -15 13 -19 -3 -34 -17 -15 -20 -15 -32 -1 -16 20 -54 19 -71 -1
-11 -14 -13 -14 -21 0 -11 19 -59 21 -76 4 -17 -17 -15 -44 4 -63 15 -15 15
-17 0 -34 -20 -22 -20 -45 0 -66 15 -15 15 -17 -1 -35 -24 -27 -13 -68 22 -76
20 -5 30 -2 43 14 l17 20 17 -20 c16 -18 16 -21 2 -37 -20 -22 -20 -40 0 -62
15 -16 14 -20 -5 -40 -12 -13 -21 -17 -21 -11 0 7 -11 18 -25 24 -21 9 -28 8
-45 -7 -27 -24 -25 -51 4 -70 19 -13 29 -14 45 -5 12 6 21 15 21 21 0 5 13 0
29 -12 23 -17 32 -19 50 -10 26 14 29 66 5 79 -15 8 -14 12 5 31 18 18 22 19
27 7 8 -21 40 -29 64 -16 25 14 27 65 3 80 -17 10 -17 10 0 20 21 13 23 68 2
76 -12 5 -12 9 2 28 16 21 18 21 35 4 33 -33 78 -17 78 28 0 12 -7 27 -15 34
-14 12 -14 15 0 30 19 21 19 49 0 70 -14 15 -13 19 3 34 17 15 20 15 32 1 15
-18 51 -20 68 -3 17 17 15 53 -3 68 -14 12 -14 15 0 30 19 21 19 54 0 70 -14
12 -14 15 1 32 15 16 19 17 34 3 21 -19 54 -19 70 0 11 13 14 13 24 2 28 -36
86 -18 86 27 0 43 -53 63 -80 31 -12 -14 -15 -14 -30 0 -9 8 -26 15 -37 15
-11 0 -26 -7 -33 -15 -12 -14 -15 -14 -30 0 -9 8 -26 15 -37 15 -11 0 -26 -7
-33 -15 -12 -14 -15 -14 -32 1 -16 15 -17 19 -3 34 45 50 -16 109 -64 61 -18
-18 -18 -18 -30 0 -15 25 -47 24 -68 -1 -17 -19 -17 -19 -30 0 -17 24 -46 26
-67 4z"/>
<path d="M586 3424 c-22 -21 -20 -51 4 -66 19 -12 19 -13 -1 -34 -20 -22 -21
-22 -40 -3 -23 23 -42 24 -63 3 -22 -21 -20 -50 4 -67 l20 -14 -20 -18 c-24
-22 -25 -42 -3 -67 15 -17 15 -19 0 -36 -22 -24 -21 -48 2 -69 19 -16 19 -16
-1 -33 -16 -13 -19 -23 -14 -43 7 -31 48 -46 71 -27 21 17 19 67 -2 80 -17 10
-17 10 0 20 22 14 23 66 1 78 -15 8 -15 11 4 30 20 20 21 20 38 1 9 -10 23
-19 31 -19 15 0 53 35 53 50 0 6 -9 19 -20 30 l-20 20 20 20 20 20 20 -20 c11
-11 25 -20 30 -20 6 0 19 9 30 20 l20 20 20 -20 c11 -11 25 -20 30 -20 6 0 19
9 30 20 l20 20 20 -20 c24 -24 29 -24 58 -4 27 19 28 49 3 71 -19 16 -19 16 1
33 29 23 18 67 -19 76 -20 5 -30 2 -43 -14 -17 -21 -18 -21 -35 -2 -24 26 -50
25 -69 -2 l-16 -22 -16 22 c-19 27 -45 28 -69 2 l-18 -20 -14 20 c-17 24 -46
26 -67 4z"/>
<path d="M4886 3424 c-21 -21 -20 -40 3 -63 18 -18 18 -19 0 -35 -24 -20 -24
-41 -1 -63 16 -17 16 -19 -2 -37 -17 -17 -20 -17 -28 -2 -13 23 -65 21 -78 -3
-5 -11 -10 -24 -10 -30 0 -16 30 -41 50 -41 10 0 26 7 34 16 15 14 17 14 32 0
20 -21 48 -20 69 1 16 16 18 16 27 0 21 -39 97 -2 84 41 -4 11 -14 23 -23 26
-14 6 -13 9 5 27 27 24 28 41 4 62 -24 22 -58 22 -70 0 -9 -15 -12 -14 -33 5
-12 12 -17 22 -11 22 7 0 18 11 24 25 21 46 -40 86 -76 49z"/>
<path d="M388 3329 c-22 -13 -23 -47 -2 -70 15 -17 15 -19 0 -34 -9 -9 -16
-25 -16 -35 0 -10 7 -26 16 -35 15 -15 15 -17 0 -34 -24 -26 -20 -60 8 -72 51
-24 90 36 49 76 -16 16 -16 18 0 27 22 12 22 64 0 76 -16 9 -16 11 0 27 23 22
22 62 -2 75 -24 12 -31 12 -53 -1z"/>
<path d="M3396 3324 c-21 -21 -20 -39 4 -62 19 -18 19 -18 -2 -36 -19 -17 -22
-17 -30 -2 -12 21 -52 21 -73 0 -15 -15 -17 -15 -29 1 -16 22 -55 16 -72 -10
-12 -18 -11 -24 2 -43 18 -26 59 -29 73 -5 9 17 10 17 28 0 25 -22 59 -22 71
0 9 16 11 16 27 0 21 -21 49 -22 69 -1 21 20 20 40 -1 62 -17 16 -17 18 1 36
17 17 20 17 28 2 13 -23 65 -21 78 3 5 11 10 24 10 30 0 16 -30 41 -50 41 -10
0 -26 -7 -34 -16 -15 -14 -17 -14 -32 0 -8 9 -24 16 -34 16 -10 0 -26 -7 -34
-16z"/>
<path d="M5417 3322 c-23 -25 -21 -48 5 -66 l21 -15 -23 -19 c-23 -18 -24 -18
-42 0 -23 23 -40 23 -61 0 -22 -25 -21 -45 3 -67 17 -15 24 -16 45 -7 14 6 25
16 25 23 0 6 12 1 26 -10 33 -26 39 -26 64 -1 l20 20 20 -20 c11 -11 23 -20
28 -20 18 0 52 33 52 50 0 17 -34 50 -52 50 -5 0 -17 -9 -28 -20 l-20 -20 -20
20 -20 20 20 20 c24 24 24 29 4 58 -18 27 -45 28 -67 4z"/>
<path d="M3102 3128 c-16 -16 -15 -53 2 -67 13 -11 12 -15 -2 -30 -16 -17 -18
-17 -40 0 -23 18 -50 15 -64 -5 -13 -19 -9 -53 8 -67 14 -11 14 -13 0 -21 -21
-12 -21 -64 0 -76 15 -8 14 -12 -5 -31 -18 -18 -22 -19 -27 -7 -16 43 -84 23
-84 -24 0 -47 68 -67 84 -24 5 12 9 11 27 -7 19 -19 20 -23 5 -31 -21 -12 -21
-67 -1 -75 14 -5 14 -7 0 -23 -41 -46 9 -108 57 -71 22 17 24 17 40 0 14 -15
15 -19 2 -30 -18 -15 -18 -68 1 -75 12 -5 12 -9 -3 -29 -16 -22 -17 -22 -30
-4 -17 25 -59 24 -74 0 -12 -20 -12 -20 -26 0 -17 25 -57 25 -74 0 -14 -20
-14 -20 -26 0 -15 24 -57 25 -74 0 -13 -18 -14 -18 -30 4 -15 20 -16 25 -3 35
19 16 19 54 0 70 -14 12 -14 15 1 31 16 18 17 18 42 -1 22 -18 28 -19 46 -7
27 18 33 57 11 73 -16 12 -16 14 -1 29 24 25 20 63 -8 76 -50 23 -90 -36 -51
-75 14 -14 14 -17 -5 -36 -11 -11 -20 -15 -20 -10 0 19 -46 33 -69 21 -24 -14
-28 -53 -6 -71 13 -10 12 -15 -3 -35 -16 -22 -17 -22 -30 -4 -25 36 -82 18
-82 -26 0 -42 54 -62 80 -30 12 14 15 14 32 -1 16 -15 17 -19 3 -34 -18 -20
-19 -52 -3 -68 17 -17 53 -15 68 3 12 14 15 14 32 -1 16 -15 17 -19 3 -34 -19
-21 -19 -49 0 -70 14 -15 13 -19 -3 -34 -17 -15 -20 -15 -32 -1 -15 18 -51 20
-68 3 -17 -17 -15 -53 3 -68 14 -12 14 -15 0 -30 -18 -20 -20 -51 -3 -68 18
-18 55 -14 70 7 13 18 14 18 30 -4 15 -20 16 -25 3 -35 -41 -34 6 -96 54 -71
11 7 21 16 21 21 0 6 9 1 20 -10 49 -49 109 11 63 63 -17 18 -17 19 0 28 20
11 23 49 5 67 -16 16 -48 15 -68 -3 -15 -14 -19 -13 -34 3 -15 17 -15 20 -1
32 8 7 15 23 15 35 0 12 -7 28 -15 35 -14 12 -14 15 0 30 19 21 19 49 0 70
-14 15 -13 19 3 34 17 15 20 15 32 1 7 -8 23 -15 35 -15 12 0 28 7 35 15 12
14 15 14 30 0 9 -8 26 -15 37 -15 11 0 26 7 33 15 12 14 15 14 30 0 21 -19 54
-19 70 0 11 13 14 13 27 0 19 -20 60 -19 71 2 9 15 11 14 31 -3 20 -20 20 -20
1 -37 -24 -20 -25 -40 -4 -61 40 -40 101 3 75 53 -7 11 -16 21 -21 21 -6 0 -1
9 10 20 24 24 25 43 4 64 -20 20 -43 20 -65 0 -17 -15 -19 -15 -35 0 -15 16
-15 18 0 35 20 22 20 45 0 66 -15 15 -15 17 1 35 24 27 13 68 -22 76 -20 5
-30 2 -43 -14 l-17 -20 -17 20 c-16 18 -16 21 -2 37 20 22 20 45 0 66 -15 15
-15 17 0 34 21 23 20 44 -2 64 -24 22 -38 21 -61 -2 -19 -19 -20 -19 -36 -1
-16 18 -16 20 -1 35 20 21 20 44 0 66 -14 16 -14 19 2 38 18 20 18 20 31 1 18
-25 49 -25 70 0 17 19 17 19 30 0 17 -24 46 -26 68 -4 15 15 17 15 35 -1 40
-36 96 7 70 55 -13 24 -65 27 -78 4 -8 -14 -10 -14 -21 0 -17 20 -67 21 -79 1
-7 -14 -11 -13 -26 4 -17 19 -17 21 -2 36 30 31 13 75 -29 75 -12 0 -26 -5
-33 -12z"/>
<path d="M5217 3122 c-22 -24 -21 -48 2 -68 18 -16 18 -17 -3 -38 l-21 -21
-23 23 c-21 22 -25 23 -45 9 -31 -20 -34 -62 -7 -77 l22 -12 -21 -14 c-26 -19
-27 -59 -2 -76 20 -14 20 -14 0 -26 -37 -23 -18 -82 26 -82 44 0 63 59 27 81
-18 11 -18 13 2 33 20 20 22 20 34 4 15 -21 52 -24 70 -6 18 18 14 55 -7 70
-19 13 -19 14 4 34 22 20 24 20 39 2 21 -24 51 -23 69 2 l14 20 18 -20 c24
-26 50 -25 69 2 20 29 20 34 -4 58 -25 25 -35 25 -61 -1 -18 -18 -22 -19 -32
-6 -20 24 -45 27 -70 7 -23 -18 -24 -18 -41 2 -17 19 -17 22 -2 30 23 13 21
65 -3 78 -27 14 -35 13 -54 -8z"/>
<path d="M5620 3120 c-11 -11 -20 -24 -20 -30 0 -5 9 -19 20 -30 l20 -20 -20
-20 c-25 -25 -25 -32 -2 -60 18 -23 18 -24 -1 -43 -18 -18 -21 -18 -29 -3 -15
26 -66 21 -80 -9 -9 -21 -8 -28 7 -45 23 -25 47 -25 70 0 17 19 18 19 36 -3
14 -17 15 -24 5 -32 -23 -18 -25 -43 -7 -67 18 -23 18 -24 0 -47 -19 -23 -14
-50 11 -66 6 -4 3 -16 -9 -31 -24 -31 -17 -62 17 -71 50 -12 82 40 44 73 -19
16 -19 17 -1 35 11 11 19 26 19 34 0 8 -8 23 -19 34 -18 18 -18 19 0 35 25 21
24 51 -1 69 -19 13 -19 13 0 30 11 9 20 26 20 36 0 11 -9 26 -20 34 -19 13
-19 13 0 30 26 22 25 52 0 70 l-20 14 20 18 c26 24 25 50 -2 69 -29 20 -34 20
-58 -4z"/>
<path d="M690 3020 c-25 -25 -25 -42 -1 -64 19 -17 19 -18 0 -37 -24 -24 -24
-43 -1 -66 17 -17 17 -19 -5 -42 -18 -19 -23 -21 -23 -8 0 20 -47 34 -69 20
-23 -15 -25 -50 -3 -68 19 -16 19 -17 -2 -40 -20 -23 -21 -23 -34 -4 -25 36
-82 18 -82 -26 0 -44 57 -62 82 -26 13 19 14 19 34 -4 20 -22 20 -24 2 -39
-23 -20 -23 -53 1 -68 19 -12 19 -12 -2 -34 l-21 -22 -17 21 c-14 18 -21 20
-45 12 -53 -19 -40 -85 17 -85 19 0 30 6 34 21 l7 21 15 -22 c11 -15 23 -20
45 -18 42 4 54 37 27 72 -18 23 -19 27 -5 32 9 3 16 14 17 23 0 12 3 11 16 -6
19 -28 67 -31 83 -5 10 16 10 16 20 0 15 -25 66 -23 80 2 26 48 -30 91 -70 55
-19 -17 -21 -17 -40 0 l-20 18 20 19 c11 10 20 25 20 33 0 8 -9 23 -20 33
l-20 19 20 18 c19 17 21 17 38 2 25 -22 48 -21 69 3 17 19 17 19 30 0 20 -29
61 -26 75 6 23 49 -32 85 -74 48 -19 -18 -20 -18 -29 -1 -13 22 -65 23 -77 1
-8 -15 -11 -15 -30 4 -20 20 -20 21 -1 38 24 22 24 39 1 62 -18 18 -18 19 0
42 10 12 18 26 18 31 0 12 -38 49 -50 49 -5 0 -19 -9 -30 -20z"/>
<path d="M2407 2832 c-10 -10 -17 -25 -17 -32 0 -7 7 -22 17 -32 15 -17 15
-19 0 -36 -21 -23 -21 -41 -1 -63 15 -17 15 -19 0 -35 -16 -15 -18 -15 -35 0
-23 21 -44 20 -64 -2 -23 -25 -21 -48 4 -66 23 -15 47 -12 65 10 9 11 14 10
29 -6 16 -18 16 -20 1 -35 -34 -35 -10 -79 40 -73 37 4 49 39 24 71 -16 20
-17 26 -6 30 23 9 25 45 5 71 -15 19 -16 25 -5 29 23 9 26 47 5 68 -19 19 -19
19 0 38 19 19 20 19 37 0 22 -24 39 -24 63 0 18 18 19 18 35 -1 15 -17 15 -20
1 -34 -22 -23 -18 -51 9 -69 19 -13 29 -14 45 -5 26 14 28 65 4 80 -17 10 -17
10 0 20 27 17 22 68 -8 82 -22 10 -29 9 -47 -9 -20 -20 -21 -20 -39 -2 -24 24
-41 24 -63 0 -17 -19 -18 -19 -37 0 -24 24 -41 24 -62 1z"/>
<path d="M3300 2830 c-25 -25 -25 -35 -2 -57 17 -17 17 -19 0 -44 -34 -46 11
-95 58 -64 28 18 31 41 7 67 -15 17 -15 19 1 37 17 19 18 19 37 0 23 -23 37
-24 61 -2 17 15 19 15 37 -1 36 -33 94 10 72 53 -16 29 -42 34 -70 13 -25 -17
-27 -17 -43 0 -23 23 -33 23 -57 -1 -19 -19 -20 -19 -37 0 -22 24 -39 24 -64
-1z"/>
<path d="M1316 2734 c-20 -20 -20 -43 0 -65 14 -16 14 -19 -3 -36 -18 -18 -18
-18 -34 1 -11 14 -23 17 -42 12 -35 -8 -46 -49 -21 -77 17 -19 17 -20 -2 -33
-16 -13 -21 -12 -35 0 -21 18 -44 18 -64 -2 -15 -15 -17 -15 -35 1 -41 37
-105 -18 -70 -60 16 -20 67 -19 78 0 7 14 10 13 25 -3 16 -17 16 -20 2 -32
-19 -16 -19 -54 0 -70 14 -12 14 -15 0 -30 -18 -20 -20 -51 -3 -68 17 -17 53
-15 68 3 12 14 15 14 30 0 21 -19 49 -19 70 0 15 14 19 13 34 -3 15 -17 15
-20 1 -32 -32 -26 -12 -80 30 -80 42 0 62 54 30 80 -14 12 -14 15 1 32 15 16
19 17 34 3 9 -8 25 -15 35 -15 10 0 26 7 35 15 15 14 19 13 34 -3 15 -17 15
-20 1 -32 -8 -7 -15 -23 -15 -35 0 -12 7 -28 15 -35 14 -12 14 -15 -1 -32 -15
-16 -19 -17 -34 -3 -33 30 -80 12 -80 -30 0 -42 54 -62 80 -30 12 14 15 14 32
-1 16 -15 17 -19 3 -34 -40 -44 9 -100 59 -67 21 14 26 14 36 2 16 -19 54 -19
70 0 12 14 15 14 30 0 21 -19 44 -19 65 1 15 15 17 15 34 0 22 -20 45 -20 66
0 15 15 17 15 34 0 22 -20 40 -20 63 1 17 15 19 15 36 0 10 -10 25 -17 32 -17
7 0 22 7 32 17 17 15 19 15 37 -1 19 -17 19 -18 0 -37 -23 -23 -24 -37 -3 -60
14 -16 14 -20 -1 -42 -13 -20 -14 -30 -5 -46 6 -12 16 -21 23 -21 6 0 2 -10
-10 -22 -21 -20 -23 -21 -41 -5 -23 21 -40 21 -64 0 -17 -15 -19 -15 -36 0
-25 23 -48 21 -65 -3 l-14 -20 -18 20 c-17 19 -17 21 -2 38 22 25 21 45 -3 67
-17 15 -24 16 -45 7 -14 -6 -25 -17 -25 -24 0 -6 -12 -1 -26 13 -24 22 -27 23
-53 8 -24 -14 -30 -14 -46 -3 -28 21 -53 17 -71 -11 -15 -23 -15 -27 0 -50 18
-28 43 -32 71 -11 16 11 22 11 46 -3 26 -15 29 -14 51 5 22 20 24 20 39 4 14
-15 14 -19 -2 -38 -20 -26 -15 -58 13 -73 16 -9 26 -7 49 10 16 12 29 17 29
12 0 -6 10 -15 21 -22 18 -9 27 -7 50 10 16 12 29 17 29 12 0 -6 10 -15 21
-22 17 -9 26 -7 48 8 24 18 27 18 42 2 16 -16 15 -18 -4 -37 -18 -18 -19 -25
-9 -47 14 -30 65 -35 80 -9 8 15 12 14 31 -5 18 -18 19 -22 7 -27 -21 -8 -29
-40 -16 -64 13 -25 65 -27 78 -4 8 15 11 15 31 -5 11 -11 16 -21 11 -21 -6 0
-15 -11 -21 -24 -23 -51 36 -90 76 -50 15 15 17 15 29 -1 16 -22 55 -16 73 11
12 18 11 24 -7 47 -16 21 -18 27 -7 34 24 14 27 41 7 66 -16 20 -17 26 -6 30
22 9 26 45 7 69 -16 19 -16 23 -2 38 15 15 18 15 42 -3 22 -15 31 -17 48 -8
25 14 29 62 7 80 -13 11 -12 15 2 30 16 17 18 17 39 -2 19 -17 27 -18 48 -9
14 6 25 17 25 24 0 6 9 2 20 -10 23 -25 33 -27 61 -12 26 15 26 66 -1 80 -24
13 -56 5 -64 -16 -5 -12 -9 -11 -26 6 -25 25 -46 25 -66 1 -16 -18 -17 -18
-37 2 -18 18 -18 21 -3 29 20 11 21 67 1 74 -12 5 -12 9 3 29 17 23 17 23 35
4 35 -37 81 -15 75 37 -4 37 -39 49 -71 24 -20 -16 -26 -17 -30 -6 -9 23 -45
25 -71 5 -19 -15 -25 -16 -29 -5 -9 22 -45 26 -69 7 -16 -13 -19 -24 -14 -44
9 -37 53 -48 76 -19 l17 20 17 -20 c16 -18 16 -21 2 -37 -20 -22 -20 -45 0
-66 15 -15 15 -17 -1 -35 -16 -18 -17 -18 -36 1 -10 10 -25 19 -32 19 -8 0
-22 -9 -31 -19 -17 -19 -18 -19 -37 0 -10 10 -25 19 -32 19 -8 0 -22 -9 -31
-19 -17 -19 -18 -19 -37 0 -23 23 -37 24 -61 2 -17 -15 -20 -16 -35 0 -16 15
-15 18 0 35 22 24 21 38 -2 61 -19 19 -19 20 0 37 18 16 20 16 37 1 26 -24 49
-21 67 7 13 19 14 29 5 45 -6 12 -16 21 -22 21 -6 0 -2 10 10 23 27 29 27 42
3 66 -19 19 -19 20 -1 36 18 16 20 16 35 1 21 -21 44 -20 68 1 18 17 19 17 28
0 6 -9 20 -17 31 -17 12 0 30 8 41 17 18 17 19 17 28 0 11 -20 49 -23 67 -5
17 17 15 53 -3 68 -14 12 -14 15 0 30 8 9 15 26 15 37 0 11 -7 26 -15 33 -14
12 -14 15 0 30 30 33 12 80 -30 80 -42 0 -60 -47 -30 -80 14 -15 13 -19 -3
-34 -17 -15 -20 -15 -32 -1 -34 41 -96 -6 -71 -54 7 -11 16 -21 21 -21 6 0 0
-10 -11 -21 -20 -20 -23 -20 -31 -5 -12 21 -64 21 -76 0 -8 -15 -11 -15 -29 3
-20 20 -20 21 -2 37 11 9 19 23 19 31 0 8 -8 22 -19 31 -18 16 -18 17 2 37 18
18 21 18 29 3 11 -20 52 -21 72 0 20 19 20 24 0 52 -18 26 -46 28 -69 6 -15
-15 -17 -15 -35 1 -18 16 -18 17 1 36 24 24 24 41 1 62 -23 21 -46 22 -67 1
-15 -15 -17 -15 -34 0 -24 21 -44 20 -66 -4 -15 -17 -16 -24 -7 -45 6 -14 17
-25 24 -25 6 0 2 -9 -10 -21 -20 -18 -24 -19 -38 -5 -21 22 -47 20 -69 -4 -15
-17 -16 -24 -7 -45 14 -30 65 -35 80 -9 8 15 11 15 29 -3 20 -20 20 -21 2 -37
-24 -20 -24 -42 0 -62 18 -16 18 -17 -2 -37 -18 -18 -21 -18 -29 -3 -12 21
-64 21 -76 0 -8 -15 -11 -15 -31 5 -11 11 -16 21 -11 21 6 0 15 11 21 24 24
51 -31 87 -74 49 -18 -17 -19 -17 -28 0 -12 21 -52 22 -69 2 -12 -14 -15 -14
-32 1 -16 15 -17 19 -3 34 18 20 19 52 3 68 -17 17 -53 15 -68 -3 -12 -14 -15
-14 -30 0 -9 8 -26 15 -37 15 -11 0 -26 -7 -33 -15 -12 -14 -15 -14 -30 0 -21
19 -49 19 -70 0 -15 -14 -19 -13 -34 3 -15 17 -15 20 -1 32 8 7 15 23 15 35 0
12 -7 28 -15 35 -14 11 -14 15 2 32 14 16 19 17 28 6 18 -25 43 -28 66 -9 21
17 23 17 41 -1 23 -23 43 -23 66 3 15 16 21 17 25 6 9 -24 45 -27 71 -6 19 15
25 16 29 5 9 -23 45 -25 71 -5 19 15 25 16 29 5 9 -23 45 -25 72 -4 14 11 25
14 25 8 0 -16 42 -29 62 -19 26 14 32 48 12 70 -21 23 -42 24 -66 2 -17 -15
-19 -15 -36 0 -23 21 -41 21 -63 1 -17 -15 -19 -15 -34 0 -22 22 -51 20 -68
-4 -13 -19 -13 -19 -30 0 -20 24 -50 26 -67 5 -12 -14 -15 -14 -30 0 -22 19
-49 19 -71 -1 -17 -15 -19 -15 -34 0 -21 21 -41 20 -62 -1 -17 -17 -19 -17
-35 0 -10 9 -25 17 -33 17 -8 0 -23 -8 -32 -17 -17 -17 -19 -17 -36 0 -16 16
-16 19 -2 33 21 21 19 61 -4 74 -27 14 -37 13 -55 -6z m316 -377 c9 -3 28 3
41 13 24 19 25 19 41 1 15 -16 15 -19 1 -31 -18 -15 -20 -51 -3 -68 17 -17 53
-15 68 3 12 14 15 14 30 0 22 -20 57 -19 69 2 9 17 11 16 30 -1 l21 -19 -20
-19 c-24 -23 -24 -27 -4 -56 18 -26 46 -28 69 -6 15 15 17 15 35 -1 18 -16 18
-17 -1 -36 -10 -10 -19 -25 -19 -32 0 -8 9 -22 19 -31 18 -16 18 -19 3 -35
-16 -16 -18 -16 -43 2 -22 15 -31 17 -48 8 -11 -7 -21 -16 -21 -22 0 -6 -11
-2 -25 9 -27 21 -63 19 -72 -4 -4 -11 -10 -10 -29 5 -26 21 -62 18 -71 -6 -4
-11 -10 -10 -25 6 -24 26 -43 26 -67 2 -19 -19 -20 -19 -37 1 -18 19 -18 20
-1 29 21 12 22 52 2 69 -14 12 -14 15 1 32 15 16 19 17 34 3 34 -30 80 -12 80
31 0 44 -58 63 -86 28 -9 -11 -14 -11 -28 5 -15 16 -15 19 -1 31 8 7 15 23 15
35 0 12 -7 28 -15 35 -14 12 -14 15 1 31 14 16 19 16 28 5 6 -7 19 -16 28 -19z
m675 -615 c-22 -25 -21 -48 3 -65 19 -13 19 -13 -1 -31 -19 -16 -22 -16 -38
-2 -22 20 -40 20 -63 -1 -17 -15 -19 -15 -37 1 -19 17 -19 18 0 37 24 24 24
41 -1 64 -20 18 -20 18 0 32 17 12 23 12 44 -2 19 -13 29 -14 45 -5 12 6 21
16 21 23 0 6 10 2 22 -10 20 -21 21 -23 5 -41z"/>
<path d="M5312 2718 c-7 -7 -12 -21 -12 -33 0 -44 57 -62 82 -26 13 19 14 19
34 -4 20 -22 20 -24 2 -39 -23 -20 -23 -41 1 -65 18 -18 18 -19 0 -35 -24 -20
-24 -41 0 -65 19 -19 19 -20 -3 -40 -21 -20 -22 -20 -34 -1 -15 25 -47 26 -68
1 -16 -18 -17 -18 -38 3 -20 20 -20 22 -4 34 24 17 23 58 -1 74 -20 14 -20 14
0 26 21 14 25 52 7 70 -18 18 -56 14 -70 -7 -12 -20 -12 -20 -26 0 -25 36 -82
18 -82 -26 0 -43 56 -62 82 -27 12 16 14 16 35 -5 22 -22 22 -23 3 -33 -26
-14 -26 -55 0 -73 19 -13 19 -13 0 -30 -25 -21 -26 -52 -1 -69 19 -13 19 -14
-5 -37 -13 -13 -24 -18 -24 -12 0 6 -11 16 -24 22 -50 23 -90 -36 -50 -75 14
-15 14 -17 0 -32 -24 -24 -20 -63 8 -75 50 -23 90 36 50 75 -14 15 -14 17 0
32 9 8 16 21 16 27 0 7 5 4 11 -5 28 -49 89 -41 89 12 0 16 -7 33 -16 38 -15
8 -15 11 3 29 19 19 21 19 42 2 23 -19 48 -16 68 8 10 13 14 12 31 -5 20 -20
20 -21 1 -38 -25 -22 -24 -49 1 -67 l20 -14 -20 -18 c-25 -23 -26 -47 -2 -68
24 -22 38 -21 62 3 l20 20 20 -20 c26 -26 45 -25 64 1 l14 21 21 -21 c26 -26
43 -27 64 -3 22 24 21 45 -1 65 -24 22 -38 21 -62 -3 l-20 -20 -21 21 -21 21
21 14 c26 19 27 46 2 68 -19 17 -19 18 1 38 17 17 21 18 31 5 20 -24 45 -27
68 -8 17 13 20 24 15 44 -9 37 -53 48 -76 19 l-17 -21 -23 24 c-13 14 -18 25
-12 25 7 0 18 11 24 25 9 21 8 28 -7 45 -23 25 -47 25 -70 0 -17 -19 -18 -19
-35 2 -16 20 -16 22 2 40 23 23 23 41 -2 63 l-20 18 20 19 c24 23 25 41 4 62
-22 23 -61 20 -75 -5 l-11 -21 -14 21 c-17 23 -53 28 -72 9z"/>
<path d="M3992 2538 c-17 -17 -15 -53 3 -68 14 -12 14 -15 0 -30 -19 -21 -19
-49 0 -70 14 -15 13 -19 -3 -34 -17 -15 -20 -15 -32 -1 -15 18 -51 20 -68 3
-17 -17 -15 -53 3 -68 14 -12 14 -15 0 -30 -8 -9 -15 -26 -15 -37 0 -11 7 -26
15 -33 14 -12 14 -15 0 -30 -20 -22 -19 -57 2 -69 17 -9 17 -10 0 -28 -21 -24
-22 -47 -1 -68 15 -15 15 -17 0 -34 -20 -22 -20 -45 0 -65 14 -14 13 -18 -5
-38 -12 -12 -21 -16 -21 -10 0 7 -11 18 -25 24 -21 9 -28 8 -45 -7 -24 -22
-25 -42 -4 -66 15 -17 15 -19 0 -34 -23 -24 -20 -52 8 -70 19 -13 29 -14 45
-5 25 13 29 61 7 79 -13 11 -12 15 2 30 16 17 18 17 39 -2 19 -17 27 -18 48
-9 30 14 35 65 9 80 -15 8 -14 12 5 31 18 18 22 19 27 7 3 -9 14 -18 25 -21
54 -17 85 63 34 87 -22 10 -29 9 -47 -9 l-20 -21 -20 20 c-19 19 -19 22 -4 30
21 12 21 64 0 76 -14 8 -14 10 0 21 20 17 21 55 1 71 -14 12 -14 15 0 30 8 9
15 26 15 37 0 11 -7 26 -15 33 -14 12 -14 15 1 32 15 16 19 17 34 3 20 -18 52
-19 68 -3 17 17 15 53 -3 68 -14 12 -14 15 0 30 8 9 15 25 15 35 0 10 -7 26
-15 35 -14 15 -14 18 0 30 32 26 12 80 -30 80 -12 0 -26 -5 -33 -12z"/>
<path d="M4192 2338 c-17 -17 -15 -53 3 -68 14 -12 14 -15 -1 -32 -15 -16 -19
-17 -34 -3 -20 18 -52 19 -68 3 -17 -17 -15 -53 3 -68 14 -12 14 -15 0 -30
-20 -22 -19 -57 2 -69 17 -9 17 -10 0 -28 -25 -28 -22 -61 7 -74 25 -12 66 2
66 21 0 6 9 1 20 -10 19 -19 19 -22 5 -36 -19 -20 -19 -63 0 -71 14 -5 14 -8
-1 -24 -15 -16 -19 -17 -37 -4 -27 19 -42 19 -61 -1 -21 -20 -20 -48 1 -69 16
-16 16 -18 0 -27 -22 -12 -22 -46 0 -71 17 -18 17 -19 0 -28 -20 -11 -23 -49
-5 -67 16 -16 53 -15 67 2 11 13 15 12 30 -2 15 -14 16 -19 4 -33 -18 -21 -17
-66 3 -77 14 -8 14 -10 0 -21 -19 -16 -21 -52 -4 -69 16 -16 48 -15 67 1 14
12 19 11 33 -4 14 -15 15 -19 2 -30 -31 -25 -10 -79 31 -79 42 0 62 54 30 80
-14 12 -14 15 2 32 15 16 18 17 25 3 12 -20 62 -19 79 1 11 14 13 14 21 0 10
-18 59 -21 75 -5 8 8 17 7 33 -4 13 -9 17 -17 11 -22 -26 -16 -31 -43 -11 -67
18 -24 18 -25 0 -41 -16 -13 -20 -14 -31 -1 -14 17 -51 18 -67 2 -17 -17 -15
-53 3 -68 13 -11 13 -14 2 -24 -24 -19 -27 -44 -8 -67 16 -20 16 -24 2 -39
-15 -15 -18 -15 -42 3 -22 15 -31 17 -48 8 -11 -7 -21 -16 -21 -22 0 -6 -12
-1 -26 10 -26 20 -50 19 -70 -5 -9 -11 -14 -10 -30 7 -17 19 -18 21 -1 30 20
11 23 49 5 67 -15 15 -51 15 -66 0 -17 -17 -15 -55 5 -66 15 -9 14 -12 -5 -32
-18 -20 -22 -21 -27 -8 -9 23 -40 28 -64 11 -47 -33 -7 -98 45 -74 13 6 24 15
24 21 0 5 9 1 20 -10 25 -25 45 -25 68 -2 16 16 18 16 35 0 22 -23 43 -23 63
1 16 18 17 18 35 0 24 -24 45 -24 66 1 17 19 17 19 30 0 17 -24 46 -26 68 -4
15 15 17 15 34 0 23 -21 44 -20 64 2 24 26 21 49 -7 67 -19 13 -29 14 -45 5
-12 -6 -21 -15 -21 -21 0 -5 -11 -2 -24 8 -24 18 -24 18 -5 36 24 23 24 52 -1
70 -19 13 -19 13 1 31 20 16 22 16 40 1 26 -24 67 -12 75 22 5 20 2 31 -16 45
-12 10 -17 18 -11 18 6 0 16 11 23 25 9 19 8 29 -5 49 -14 21 -14 26 -2 36 19
16 19 54 0 70 -14 12 -14 15 0 30 8 9 15 26 15 37 0 11 -7 26 -15 33 -14 12
-14 15 0 30 8 9 15 25 15 35 0 10 -7 26 -15 35 -14 15 -14 19 -1 29 12 10 20
9 40 -4 24 -16 28 -16 51 -1 30 19 32 46 7 69 -23 21 -41 21 -63 1 -17 -15
-19 -15 -34 0 -15 15 -15 17 -1 32 30 29 9 84 -31 84 -9 0 -24 -7 -34 -16 -17
-15 -19 -15 -34 0 -21 20 -44 20 -66 0 -17 -15 -19 -15 -34 0 -15 15 -15 17
-1 32 23 23 20 51 -8 69 -19 13 -29 14 -45 5 -12 -6 -21 -16 -21 -22 0 -6 -11
-1 -25 12 -21 20 -28 22 -50 12 -14 -6 -25 -17 -25 -24 0 -6 -10 -1 -22 11
-19 21 -20 24 -5 33 22 12 22 46 0 71 -17 18 -17 19 0 28 21 12 22 52 2 69
-14 12 -14 15 0 30 8 9 15 25 15 35 0 10 -7 26 -15 35 -14 15 -14 18 0 30 32
26 12 80 -30 80 -12 0 -26 -5 -33 -12z m159 -566 c24 14 30 14 40 2 15 -19 44
-18 64 2 15 15 17 15 34 0 23 -20 45 -20 66 0 15 16 18 16 33 1 14 -15 14 -18
-3 -37 -19 -21 -19 -23 -2 -52 17 -29 17 -32 0 -50 -17 -19 -17 -21 0 -50 15
-26 15 -31 2 -44 -19 -19 -19 -34 -1 -60 11 -16 12 -23 1 -37 -11 -15 -14 -15
-25 -2 -16 19 -54 19 -73 0 -13 -13 -16 -13 -27 0 -16 19 -54 19 -70 0 -12
-14 -15 -14 -30 0 -21 19 -49 19 -70 0 -15 -14 -19 -13 -34 3 -15 17 -15 20
-1 32 20 16 19 54 -1 71 -14 11 -14 13 0 21 9 5 16 22 16 37 0 16 -7 34 -16
42 -14 11 -14 13 0 21 20 11 21 62 1 78 -14 11 -13 14 2 25 14 10 22 10 41 -3
22 -15 27 -15 53 0z"/>
<path d="M4880 2230 c-13 -24 -5 -56 16 -64 12 -5 11 -9 -7 -27 -19 -19 -23
-20 -31 -5 -15 26 -66 21 -80 -9 -9 -21 -8 -28 7 -45 22 -24 42 -25 67 -3 17
15 19 15 37 -1 19 -17 19 -18 0 -37 -24 -24 -24 -41 -1 -62 23 -21 41 -21 64
0 17 15 20 16 35 0 16 -15 15 -18 0 -35 -21 -23 -21 -41 0 -64 15 -17 15 -19
0 -36 -21 -23 -21 -41 0 -64 15 -17 16 -20 0 -35 -15 -16 -18 -15 -35 0 -24
22 -45 21 -65 -1 -22 -24 -21 -38 2 -61 19 -19 19 -20 0 -37 -18 -16 -20 -16
-37 -1 -25 22 -45 21 -67 -3 -15 -17 -16 -24 -7 -45 14 -30 65 -35 80 -9 8 15
12 14 31 -5 18 -18 19 -22 7 -27 -21 -8 -29 -40 -16 -64 13 -25 65 -27 78 -4
8 15 11 15 29 -3 20 -20 20 -21 2 -37 -24 -20 -24 -41 -1 -63 16 -17 16 -19
-2 -37 -17 -17 -20 -17 -28 -2 -12 22 -64 21 -78 -1 -10 -17 -10 -17 -20 0
-15 24 -66 23 -80 -2 -5 -11 -10 -24 -10 -30 0 -16 30 -41 50 -41 10 0 26 7
34 16 15 14 17 14 32 0 20 -20 48 -20 68 -1 14 14 17 14 34 -1 19 -16 19 -17
1 -35 -23 -23 -24 -42 -3 -63 21 -22 47 -20 69 4 15 17 16 24 7 45 -6 14 -17
25 -24 25 -6 0 -2 9 10 20 28 26 28 44 0 69 -18 18 -19 21 -5 27 28 10 31 43
6 70 -12 13 -17 24 -11 24 7 0 18 11 24 25 10 22 8 29 -12 50 -13 14 -18 25
-12 25 6 0 16 10 23 21 9 18 7 27 -10 50 -12 16 -17 29 -12 29 6 0 15 10 22
21 9 17 7 26 -8 48 -18 25 -18 27 -1 44 23 22 23 32 -2 57 l-20 20 20 20 c25
25 25 35 2 58 -17 16 -17 18 1 43 15 22 17 31 8 48 -7 11 -16 21 -22 21 -5 0
0 13 12 29 17 23 19 32 10 50 -14 26 -66 29 -79 5 -8 -15 -12 -14 -31 5 -18
18 -19 22 -7 27 21 8 29 40 16 64 -15 27 -65 27 -80 0z"/>
<path d="M487 2212 c-10 -10 -17 -25 -17 -32 0 -7 7 -22 17 -32 15 -17 15 -19
0 -36 -22 -24 -21 -48 2 -68 18 -16 18 -17 -3 -38 l-21 -21 -19 24 c-18 21
-18 24 -3 33 21 11 22 52 1 72 -19 20 -24 20 -52 0 -28 -19 -29 -60 -1 -75
l21 -11 -22 -15 c-31 -22 -24 -65 14 -78 24 -8 31 -6 45 12 l17 21 21 -22 c21
-22 21 -22 2 -34 -37 -23 -18 -82 26 -82 42 0 62 54 30 80 -14 12 -14 15 0 30
20 22 19 67 -1 78 -15 8 -15 11 4 30 20 20 21 20 38 1 23 -25 49 -24 68 3 20
29 20 34 -4 58 l-20 20 20 20 c11 11 20 25 20 30 0 15 -38 50 -53 50 -8 0 -22
-9 -31 -19 -17 -19 -18 -19 -37 0 -24 24 -41 24 -62 1z"/>
<path d="M5222 2114 c-27 -19 -28 -49 -3 -70 18 -16 18 -17 -3 -38 l-21 -21
-23 23 c-21 22 -25 23 -45 9 -31 -20 -34 -62 -7 -77 l22 -12 -21 -14 c-38 -27
-22 -84 24 -84 44 0 62 57 26 82 -19 13 -19 14 4 34 22 20 24 20 39 2 21 -24
51 -23 69 2 13 19 13 19 30 0 22 -26 52 -25 71 1 16 23 12 47 -11 66 -13 10
-12 14 5 31 24 24 19 57 -10 73 -16 9 -26 7 -47 -8 -25 -18 -27 -18 -43 -1
-22 22 -28 22 -56 2z"/>
<path d="M3500 2040 c-24 -24 -25 -38 -5 -60 14 -16 14 -20 -2 -48 -17 -29
-17 -31 1 -51 18 -20 18 -22 3 -39 -23 -25 -21 -48 3 -65 l20 -14 -20 -18
c-19 -17 -21 -17 -38 -2 -23 21 -41 21 -64 0 -17 -15 -20 -16 -35 0 -16 15
-15 18 0 35 22 25 21 45 -3 67 -17 15 -24 16 -45 7 -14 -6 -25 -17 -25 -24 0
-6 -11 -1 -24 11 -28 26 -59 22 -76 -10 -12 -21 2 -59 21 -59 5 0 2 -11 -8
-24 -18 -24 -18 -24 -36 -5 -20 22 -47 25 -65 7 -17 -17 -15 -67 3 -75 14 -5
14 -7 0 -23 -10 -11 -15 -30 -13 -47 2 -22 9 -29 31 -31 17 -2 36 3 47 13 16
14 18 14 23 0 8 -18 58 -20 75 -3 17 17 15 44 -4 63 -15 15 -15 17 1 35 16 18
17 18 36 -1 24 -24 30 -24 60 -1 23 17 25 18 41 1 15 -16 15 -19 -3 -35 -10
-9 -19 -23 -19 -31 0 -7 9 -22 19 -32 19 -19 19 -20 1 -36 -18 -16 -20 -16
-35 -1 -24 23 -52 20 -70 -8 -13 -19 -14 -29 -5 -45 14 -26 65 -28 80 -3 10
16 10 16 20 0 15 -25 66 -23 80 2 13 24 5 56 -16 64 -12 5 -11 9 7 27 19 19
23 20 31 5 15 -26 66 -21 80 9 10 22 9 29 -9 47 -19 19 -20 21 -4 37 15 16 18
16 42 -1 46 -34 95 11 64 58 -18 28 -41 31 -67 7 -18 -16 -20 -15 -41 5 -12
12 -16 22 -10 22 7 0 17 9 23 21 9 16 8 26 -5 46 -15 23 -16 27 -1 41 14 14
17 14 34 -1 25 -23 49 -21 64 3 12 19 13 19 34 -1 36 -34 95 1 78 46 -12 31
-44 39 -73 18 -23 -17 -27 -18 -42 -4 -14 15 -13 18 3 42 35 48 -13 97 -61 62
-25 -18 -27 -18 -43 -1 -23 23 -33 23 -58 -2z"/>
<path d="M910 2022 c-8 -2 -21 -12 -28 -21 -12 -15 -14 -15 -23 2 -6 10 -22
17 -39 17 -17 0 -33 -7 -40 -17 -10 -17 -10 -17 -20 0 -17 27 -68 22 -82 -8
-9 -21 -8 -28 7 -45 24 -26 50 -25 69 2 l15 21 19 -23 c18 -23 18 -24 0 -42
-23 -23 -23 -40 2 -63 24 -22 66 -14 75 15 7 22 -10 60 -27 60 -6 0 -1 11 12
25 l23 24 17 -21 c13 -16 23 -19 43 -14 27 6 46 44 32 65 -10 17 -38 29 -55
23z"/>
<path d="M5508 1995 c-10 -22 -9 -29 9 -47 l21 -20 -20 -20 c-19 -19 -22 -19
-30 -4 -13 23 -65 21 -78 -4 -26 -48 30 -91 70 -55 19 17 21 17 40 0 24 -22
66 -14 75 15 7 22 -10 60 -27 60 -6 0 -1 11 12 25 20 21 22 28 12 50 -16 36
-68 35 -84 0z"/>
<path d="M2908 1849 c-23 -13 -24 -65 -2 -77 15 -8 15 -11 -5 -31 -11 -11 -21
-16 -21 -11 0 6 -11 15 -24 21 -31 14 -66 -4 -66 -34 0 -48 37 -65 74 -36 14
11 26 16 26 10 0 -6 9 -15 21 -21 16 -9 26 -8 45 5 27 18 31 46 8 69 -14 14
-13 18 5 38 12 12 21 16 21 10 0 -7 11 -18 25 -24 46 -21 86 40 49 76 -21 21
-40 20 -63 -3 -18 -18 -19 -18 -35 0 -18 21 -33 23 -58 8z"/>
<path d="M579 1799 c-27 -51 41 -96 73 -50 13 19 14 19 37 -5 19 -20 21 -25 7
-30 -21 -8 -29 -39 -16 -64 13 -24 52 -26 74 -4 15 14 17 14 32 0 24 -24 63
-20 75 8 23 50 -36 90 -75 50 -14 -14 -18 -13 -37 5 -19 18 -20 21 -6 27 22 8
30 39 17 64 -15 28 -65 27 -81 -1 l-11 -21 -14 21 c-20 27 -60 27 -75 0z"/>
<path d="M5212 1708 c-18 -18 -14 -56 6 -69 18 -11 18 -13 -2 -33 -20 -20 -22
-20 -34 -4 -15 21 -52 24 -70 6 -19 -19 -14 -55 9 -72 l21 -14 -21 -11 c-39
-21 -21 -81 24 -81 44 0 63 60 25 80 -19 10 -19 11 3 33 21 21 23 21 35 5 17
-24 58 -23 74 1 14 20 14 20 26 0 13 -20 47 -25 70 -10 20 13 18 52 -4 69 -19
16 -19 16 4 39 22 22 23 26 9 46 -20 31 -62 34 -77 7 l-12 -22 -14 21 c-17 23
-53 28 -72 9z"/>
<path d="M1264 1646 c-106 -26 -185 -93 -232 -196 -37 -79 -37 -192 0 -272
125 -272 500 -271 626 1 22 46 26 71 26 136 0 93 -27 165 -89 234 -76 84 -219
126 -331 97z m152 -91 c60 -18 127 -72 157 -129 30 -57 30 -164 0 -222 -26
-48 -82 -100 -132 -122 -54 -23 -147 -20 -204 8 -80 38 -147 140 -147 225 0
96 85 210 176 239 63 19 89 19 150 1z"/>
<path d="M1285 1450 c-11 -4 -33 -22 -49 -39 -39 -41 -47 -120 -17 -169 33
-52 77 -74 140 -69 48 3 58 8 93 45 34 37 38 47 38 93 0 63 -26 110 -74 133
-36 17 -98 20 -131 6z"/>
<path d="M2005 1540 c-15 -17 -16 -24 -7 -45 6 -14 17 -25 24 -25 6 0 2 -9
-10 -20 -25 -23 -27 -33 -12 -61 13 -24 65 -26 78 -3 8 15 11 15 28 -2 18 -18
18 -20 2 -36 -10 -10 -18 -24 -18 -32 0 -20 28 -46 50 -46 22 0 50 26 50 46 0
8 -8 22 -17 32 -17 16 -17 18 0 35 21 21 22 41 1 61 -20 20 -48 20 -68 1 -14
-14 -17 -14 -34 1 -19 16 -19 17 -1 35 23 23 24 42 3 63 -21 22 -47 20 -69 -4z"/>
<path d="M2702 1548 c-7 -7 -12 -21 -12 -33 0 -42 47 -60 80 -30 15 14 18 14
30 0 7 -8 23 -15 35 -15 12 0 28 7 35 15 12 14 15 14 30 0 21 -19 49 -19 70 0
15 14 19 13 34 -3 15 -17 15 -20 1 -32 -32 -26 -12 -80 30 -80 42 0 60 47 30
80 -14 15 -14 18 0 30 18 15 20 51 3 68 -18 18 -55 14 -70 -7 -14 -20 -14 -20
-26 0 -16 25 -57 25 -74 0 -14 -20 -14 -20 -26 0 -7 10 -23 19 -37 19 -14 0
-30 -9 -37 -19 -12 -20 -12 -20 -26 0 -15 21 -52 25 -70 7z"/>
<path d="M3696 1544 c-19 -18 -21 -45 -4 -62 17 -17 67 -15 74 3 5 12 9 12 29
-3 22 -16 22 -17 4 -30 -25 -17 -24 -57 0 -74 20 -14 20 -14 0 -26 -21 -14
-25 -52 -7 -70 17 -17 53 -15 68 3 12 14 15 14 30 0 33 -30 80 -12 80 30 0 42
-47 60 -80 30 -15 -14 -19 -13 -34 3 -15 17 -15 20 -1 32 20 16 19 49 -1 72
-16 16 -16 18 0 24 19 7 22 54 4 72 -17 17 -44 15 -63 -4 -15 -15 -17 -15 -34
0 -22 20 -45 20 -65 0z"/>
<path d="M2802 1348 c-17 -17 -15 -53 3 -68 14 -12 14 -15 0 -30 -18 -20 -20
-51 -3 -68 18 -18 55 -14 70 7 13 18 14 18 30 -4 15 -20 16 -25 3 -35 -8 -7
-15 -22 -15 -34 0 -45 45 -61 79 -27 18 18 18 18 30 0 15 -24 47 -24 68 0 16
19 16 19 33 -1 23 -29 67 -18 76 19 5 20 2 30 -14 43 -20 17 -20 17 -1 33 24
21 24 53 0 68 -17 12 -17 13 1 31 18 18 21 18 37 4 23 -21 58 -20 69 1 9 16
11 16 27 0 21 -22 61 -22 73 0 9 16 11 16 27 0 21 -21 49 -22 69 -1 19 18 20
28 6 55 -14 25 -65 26 -80 2 -10 -17 -10 -17 -20 0 -14 22 -53 22 -75 0 -16
-16 -18 -16 -27 0 -12 22 -46 22 -71 0 -18 -17 -19 -17 -28 0 -11 20 -49 23
-67 5 -17 -17 -15 -48 3 -68 14 -15 14 -18 0 -30 -19 -15 -19 -48 -2 -69 12
-14 11 -19 -4 -33 -15 -14 -19 -15 -30 -2 -16 19 -65 18 -73 -2 -6 -15 -8 -15
-26 1 -18 16 -19 20 -5 35 19 21 19 49 0 70 -14 15 -14 18 0 30 18 15 20 51 3
68 -17 17 -48 15 -68 -3 -15 -14 -18 -14 -30 0 -15 18 -51 20 -68 3z"/>
<path d="M2200 1240 c-25 -47 30 -91 69 -55 18 15 20 15 40 -1 20 -18 20 -18
1 -31 -25 -18 -25 -47 -1 -70 19 -18 19 -18 -5 -36 -13 -10 -24 -13 -24 -8 0
6 -9 15 -21 21 -16 9 -26 8 -45 -5 -29 -18 -31 -46 -6 -68 23 -21 41 -21 64 0
17 15 19 15 36 0 26 -24 49 -21 67 7 13 19 14 29 5 45 -6 12 -15 21 -21 21 -6
0 -1 12 10 26 26 33 26 39 2 63 -19 19 -19 20 -1 36 18 16 20 16 35 1 23 -22
51 -20 69 5 15 22 11 48 -8 61 -20 14 -55 8 -66 -9 -10 -17 -10 -17 -20 0 -7
10 -23 17 -40 17 -17 0 -33 -7 -40 -17 -10 -17 -10 -17 -20 0 -15 24 -66 22
-80 -3z"/>
<path d="M1899 1139 c-9 -18 -7 -27 10 -50 12 -16 17 -29 12 -29 -6 0 -15 -9
-21 -21 -9 -16 -8 -26 5 -45 18 -28 41 -31 67 -7 17 15 19 15 36 0 24 -22 45
-21 65 1 24 26 21 49 -7 67 -19 13 -29 14 -45 5 -12 -6 -21 -15 -21 -21 0 -5
-11 -2 -24 8 -24 18 -24 18 -5 36 36 34 18 77 -33 77 -18 0 -31 -7 -39 -21z"/>
<path d="M4778 1135 c-10 -22 -8 -29 12 -50 13 -14 18 -25 12 -25 -6 0 -16 -9
-22 -21 -9 -16 -8 -26 5 -45 18 -28 41 -31 67 -7 17 15 19 15 36 0 10 -10 25
-17 32 -17 7 0 22 7 32 17 17 15 19 15 36 0 10 -10 26 -17 35 -17 15 0 47 35
47 52 0 11 -38 48 -50 48 -5 0 -19 -9 -30 -20 -20 -20 -20 -20 -39 -1 -18 18
-18 19 2 39 18 18 19 25 9 47 -14 30 -65 35 -82 8 -10 -17 -10 -17 -20 0 -17
27 -68 22 -82 -8z"/>
<path d="M3300 1050 c-24 -24 -24 -29 -4 -58 18 -26 41 -28 66 -5 17 15 19 15
36 0 10 -10 25 -17 32 -17 7 0 22 7 32 17 17 15 19 15 36 0 10 -10 25 -17 34
-17 17 0 48 31 48 48 0 15 -36 52 -50 52 -5 0 -19 -9 -30 -20 l-20 -20 -20 20
c-11 11 -24 20 -30 20 -5 0 -19 -9 -30 -20 l-20 -20 -20 20 c-11 11 -24 20
-30 20 -5 0 -19 -9 -30 -20z"/>
<path d="M3615 916 c-13 -19 -14 -29 -5 -45 6 -12 17 -21 25 -21 9 0 5 -9 -12
-26 -25 -25 -25 -25 -40 -5 -8 12 -22 21 -32 21 -20 0 -51 -30 -51 -48 0 -15
36 -52 50 -52 6 0 19 9 30 20 l20 20 20 -20 20 -20 -20 -20 c-11 -11 -20 -24
-20 -30 0 -5 9 -19 20 -30 l20 -20 -20 -20 c-11 -11 -20 -24 -20 -30 0 -15 38
-50 53 -50 18 0 47 32 47 53 0 9 -10 23 -22 31 l-22 16 22 16 c27 19 28 45 3
68 -19 17 -19 18 1 38 17 17 21 18 31 5 19 -23 43 -27 66 -11 26 19 27 49 2
71 -19 16 -19 16 1 33 16 13 19 23 14 43 -9 37 -53 48 -76 19 -17 -20 -17 -20
-33 -1 -23 26 -53 24 -72 -5z"/>
<path d="M3216 624 c-22 -21 -20 -51 4 -71 19 -17 19 -17 0 -30 -26 -19 -26
-59 1 -74 l21 -11 -22 -15 c-31 -22 -24 -65 14 -78 24 -8 31 -6 46 12 17 21
17 21 33 2 22 -24 52 -24 70 1 13 19 13 19 30 0 22 -26 52 -25 70 0 l14 20 18
-20 c23 -26 50 -25 68 1 15 20 15 20 40 -5 17 -17 21 -26 12 -26 -8 0 -19 -8
-25 -18 -10 -16 -10 -16 -20 1 -15 24 -66 22 -80 -3 -26 -48 30 -91 70 -55 19
17 21 17 38 2 23 -21 46 -22 66 -1 21 21 20 40 -3 63 -19 19 -19 20 0 37 25
22 24 49 -2 68 -23 16 -47 12 -66 -11 -10 -13 -14 -12 -31 5 -20 20 -20 21 -1
38 10 9 19 23 19 31 0 15 -35 53 -50 53 -5 0 -19 -9 -30 -20 l-20 -20 -20 20
c-25 25 -32 25 -60 2 -23 -18 -24 -18 -43 1 -18 18 -18 21 -3 29 26 15 21 66
-9 80 -21 9 -28 8 -45 -7 -25 -23 -25 -47 0 -70 l20 -18 -20 -14 c-25 -18 -26
-47 -2 -70 17 -17 17 -19 -3 -38 l-20 -20 -22 22 c-22 22 -22 23 -3 33 25 13
26 53 3 75 -16 16 -16 18 0 27 24 13 22 65 -2 78 -27 14 -37 13 -55 -6z"/>
</g>
</svg>
