<?xml version="1.0" encoding="UTF-8" standalone="no"?>
<!-- Created with Inkscape (http://www.inkscape.org/) -->

<svg
   width="210mm"
   height="297mm"
   viewBox="0 0 210 297"
   version="1.1"
   id="svg1"
   xml:space="preserve"
   inkscape:version="1.4.4 (dcaf3e7, 2026-05-05)"
   sodipodi:docname="filled.svg"
   inkscape:export-filename="filled.svg"
   inkscape:export-xdpi="96"
   inkscape:export-ydpi="96"
   xmlns:inkscape="http://www.inkscape.org/namespaces/inkscape"
   xmlns:sodipodi="http://sodipodi.sourceforge.net/DTD/sodipodi-0.dtd"
   xmlns="http://www.w3.org/2000/svg"
   xmlns:svg="http://www.w3.org/2000/svg"><sodipodi:namedview
     id="namedview1"
     pagecolor="#ffffff"
     bordercolor="#000000"
     borderopacity="0.25"
     inkscape:showpageshadow="2"
     inkscape:pageopacity="0.0"
     inkscape:pagecheckerboard="0"
     inkscape:deskcolor="#d1d1d1"
     inkscape:document-units="mm"
     inkscape:zoom="1.9477379"
     inkscape:cx="220.2555"
     inkscape:cy="246.69643"
     inkscape:window-width="1920"
     inkscape:window-height="991"
     inkscape:window-x="-9"
     inkscape:window-y="-9"
     inkscape:window-maximized="1"
     inkscape:current-layer="layer1" /><defs
     id="defs1"><marker
       id="DistanceX"
       orient="auto"
       refX="0.0"
       refY="0.0"
       style="overflow:visible"><path
         d="M 3,-3 L -3,3 M 0,-5 L  0,5"
         style="stroke:#000000; stroke-width:0.5"
         id="path1" /></marker><pattern
       id="Hatch"
       patternUnits="userSpaceOnUse"
       width="8"
       height="8"
       x="0"
       y="0"><path
         d="M8 4 l-4,4"
         stroke="#000000"
         stroke-width="0.25"
         linecap="square"
         id="path2" /><path
         d="M6 2 l-4,4"
         stroke="#000000"
         stroke-width="0.25"
         linecap="square"
         id="path3" /><path
         d="M4 0 l-4,4"
         stroke="#000000"
         stroke-width="0.25"
         linecap="square"
         id="path4" /></pattern><symbol
       id="*MODEL_SPACE" /><symbol
       id="*PAPER_SPACE" /><marker
       id="DistanceX-0"
       orient="auto"
       refX="0.0"
       refY="0.0"
       style="overflow:visible"><path
         d="M 3,-3 L -3,3 M 0,-5 L  0,5"
         style="stroke:#000000; stroke-width:0.5"
         id="path1-9" /></marker><pattern
       id="Hatch-4"
       patternUnits="userSpaceOnUse"
       width="8"
       height="8"
       x="0"
       y="0"><path
         d="M8 4 l-4,4"
         stroke="#000000"
         stroke-width="0.25"
         linecap="square"
         id="path2-8" /><path
         d="M6 2 l-4,4"
         stroke="#000000"
         stroke-width="0.25"
         linecap="square"
         id="path3-8" /><path
         d="M4 0 l-4,4"
         stroke="#000000"
         stroke-width="0.25"
         linecap="square"
         id="path4-2" /></pattern><symbol
       id="*MODEL_SPACE-4" /><symbol
       id="*PAPER_SPACE-5" /></defs><g
     inkscape:label="Layer 1"
     inkscape:groupmode="layer"
     id="layer1"><g
       inkscape:label="0"
       id="g11"
       transform="matrix(0.26458333,0,0,0.26458333,-1287.2943,-982.82095)"><path
         d="m 75.840551,1073.3858 a 0.25,0.25 0 0 0 -0.5,0 0.25,0.25 0 0 0 0.5,0 z"
         style="fill:none;stroke:#000000"
         id="path5" /><path
         d="m 95.459903,1082.9029 113.249577,-8.8011 18.66062,-47.9335 a 88.650556,88.650556 0 0 1 -97.85899,12.8208 z"
         style="fill:none;stroke:#000000"
         id="path6" /><path
         d="M 63.868305,1056.442 52.670061,943.40428 96.587696,916.62584 a 88.650556,88.650556 0 0 0 4.541424,98.59076 z"
         style="fill:none;stroke:#000000"
         id="path7" /><path
         d="M 253.96384,957.8569 A 79.748525,79.748525 0 0 0 232.85126,906.82402 L 314.12129,803.33037 Z"
         style="fill:none;stroke:#000000"
         id="path8" /><path
         d="M 213.12065,890.2978 A 79.748525,79.748525 0 0 0 159.17589,878.46316 L 300.75605,792.13574 Z"
         style="fill:none;stroke:#000000"
         id="path9" /><path
         d="m 222.01031,920.2936 -64.97736,84.0224 a 54.820972,54.820972 0 0 0 64.97736,-84.0224 z"
         style="fill:none;stroke:#000000"
         id="path10" /><path
         d="m 129.69765,982.35818 71.4751,-80.43749 a 55.343315,55.343315 0 0 0 -71.4751,80.43749 z"
         style="fill:none;stroke:#000000"
         id="path11" /></g><g
       inkscape:label="0"
       id="g11-5"
       transform="matrix(0.26458333,0,0,0.26458333,9.8245696,-186.48572)"
       style="fill:#000000;fill-opacity:1"><path
         d="m 75.840551,1073.3858 a 0.25,0.25 0 0 0 -0.5,0 0.25,0.25 0 0 0 0.5,0 z"
         style="fill:#000000;stroke:#000000;fill-opacity:1"
         id="path5-1" /><path
         d="m 95.459903,1082.9029 113.249577,-8.8011 18.66062,-47.9335 a 88.650556,88.650556 0 0 1 -97.85899,12.8208 z"
         style="fill:#000000;stroke:#000000;fill-opacity:1"
         id="path6-7" /><path
         d="M 63.868305,1056.442 52.670061,943.40428 96.587696,916.62584 a 88.650556,88.650556 0 0 0 4.541424,98.59076 z"
         style="fill:#000000;stroke:#000000;fill-opacity:1"
         id="path7-1" /><path
         d="M 253.96384,957.8569 A 79.748525,79.748525 0 0 0 232.85126,906.82402 L 314.12129,803.33037 Z"
         style="fill:#000000;stroke:#000000;fill-opacity:1"
         id="path8-1" /><path
         d="M 213.12065,890.2978 A 79.748525,79.748525 0 0 0 159.17589,878.46316 L 300.75605,792.13574 Z"
         style="fill:#000000;stroke:#000000;fill-opacity:1"
         id="path9-5" /><path
         d="m 222.01031,920.2936 -64.97736,84.0224 a 54.820972,54.820972 0 0 0 64.97736,-84.0224 z"
         style="fill:#000000;stroke:#000000;fill-opacity:1"
         id="path10-2" /><path
         d="m 129.69765,982.35818 71.4751,-80.43749 a 55.343315,55.343315 0 0 0 -71.4751,80.43749 z"
         style="fill:#000000;stroke:#000000;fill-opacity:1"
         id="path11-7" /></g></g></svg>
